<svg xmlns="http://www.w3.org/2000/svg" data-name="Layer 1" viewBox="0 0 791 741">
  <path d="M380.7 90.7l-4.62 9.24 4.12-2.06v12.81l-.2 19.81h.5l.2-33.43v13.63l-.2 19.8h.5l.2-19.8V97.88l4.12 2.06-4.62-9.24m-9.55 83.94l4.46 1.15-56.09 64.58.76.66 56.09-64.58 1.76 4.24 2.57-9.99-9.55 3.94"/>
  <path d="M380.7 170.69l-10.04-2.38 2.94 3.54-293.01 68.36.22.98 293.01-68.37-1.07 4.47 7.95-6.6"/>
  <path d="M380.7 170.7l-10.27-.97 3.39 3.1-174.1 67.4.36.94 174.11-67.41-.44 4.58 6.95-7.64m220.15 69.52L387.69 172.4l3.22-3.3-10.2 1.6 7.38 7.2-.7-4.55 213.16 67.83.3-.96m-10.13 43.12l4.26 1.73-85.41 75.25.66.75 85.41-75.25 1.18 4.45 3.88-9.57-9.98 2.64"/>
  <path d="M600.69 280.69l-9.97-2.66 2.85 3.62-382.97 78.56.2.98 382.97-78.56-1.19 4.45 8.11-6.39m5.71 4.4l4.27-1.7-9.96-2.69 3.82 9.59 1.2-4.45 84.64 75.23.66-.74-84.63-75.24"/>
  <path d="M510.02 360.22l-303.04-78.21 3.02-3.47-10.1 2.16 7.79 6.78-.96-4.5 303.04 78.2.25-.96M87.07 284.04l3.92-2.44-10.29-.9 5.45 8.78.4-4.59 123.89 76.24.52-.86-123.89-76.23m603.74 76.17l-363.79-78.49 2.88-3.59-10 2.57 8.06 6.46-1.15-4.46 363.79 78.49.21-.98m-176.25 49.7l-4.66-9.21-4.57 9.27 4.1-2.09.77 152.82h1l-.77-152.82 4.13 2.03"/>
  <path d="M601.13 560.45L513.87 406.7l4.6-.25-8.57-5.75.54 10.31 2.56-3.82 87.27 153.76.86-.5M80.7 280.7l-4.62 9.24 4.12-2.06v72.82h1v-72.82l4.12 2.06-4.62-9.24m0 120l-4.62 9.24 4.12-2.06v32.82h1v-32.82l4.12 2.06-4.62-9.24m418.92.96l3.92 2.4-90.3 56.21.52.85 90.31-56.21.43 4.59 5.4-8.8-10.28.96M403.3 502.31l4.07 2.15-78.16 55.83.58.82 78.16-55.83.72 4.55 4.83-9.13-10.2 1.61m307.9 58.33l-19.11-152.88 4.34 1.53-5.73-8.59-3.44 9.74 3.84-2.56 19.1 152.88 1-.12"/>
  <path d="M313.76 461l15.43-53.29 3.39 3.12-1.88-10.13-7 7.6 4.53-.83-15.43 53.28a40.19 40.19 0 0 0-.73 19.64L329 560.8l1-.21-17-80.4a39.2 39.2 0 0 1 .76-19.19zM331 360.44l-9.2-74.01 4.36 1.5-5.81-8.54-3.34 9.77 3.8-2.59 9.19 73.99 1-.12M210.7 400.7l-6.24 8.22 4.43-1.26-28.68 152.95.98.18 28.68-152.94 3.66 2.77-2.83-9.92"/>
  <path d="M181.01 560.31l-94.4-75.51 4.19-1.93-10.1-2.17 4.32 9.37.97-4.49 94.4 75.51.62-.78M600.7 600.7l-4.62 9.24 4.12-2.06v32.82h1v-32.82l4.12 2.06-4.62-9.24"/>
  <path fill="#e1d5e7" stroke="#9673a6" d="M280.5 560.5h98v40h-98z"/>
  <path d="M298.26 577.24h-1.12v7.9h5.05v-.91h-3.93v-6.99m7.88-.8h1.17v1.13h-1.17zm1.18 2.36h-2.93v.83h1.87v4.68h-2.47v.83h5.75v-.83h-2.22v-5.51m6.97-.12a2.11 2.11 0 0 0-2 1.2V579a1.54 1.54 0 0 0 0-.16h-1v6.35h1.05v-3.67a2.1 2.1 0 0 1 .47-1.44 1.52 1.52 0 0 1 1.19-.53 1.18 1.18 0 0 1 1 .39 1.89 1.89 0 0 1 .31 1.18v4.07h1.06v-4.22a2.44 2.44 0 0 0-.5-1.68 1.94 1.94 0 0 0-1.58-.61zm9.52.12h-1.24l-2.78 3.08v-5.43h-1.05v8.69h1.05v-2.35l.77-.57 2.15 2.92h1.23l-2.7-3.62 2.57-2.72m4.36-.12a2.64 2.64 0 0 0-2.11.84 3.56 3.56 0 0 0-.73 2.41 3.66 3.66 0 0 0 .74 2.47 2.66 2.66 0 0 0 2.13.86 3.3 3.3 0 0 0 1.64-.39 2 2 0 0 0 .95-1.11l-.93-.26a1.28 1.28 0 0 1-.61.71 2.09 2.09 0 0 1-1.06.26 1.55 1.55 0 0 1-1.29-.6 2.65 2.65 0 0 1-.47-1.67H331v-.14a3.85 3.85 0 0 0-.71-2.53 2.58 2.58 0 0 0-2.12-.85zm-1.72 2.7a2.15 2.15 0 0 1 .49-1.41 1.58 1.58 0 0 1 1.24-.51q1.53 0 1.69 1.92zm11.42-4.94h-1.05v3.34a1.81 1.81 0 0 0-.82-.78 2.52 2.52 0 0 0-1.19-.25q-2.3 0-2.3 3.32a4.38 4.38 0 0 0 .56 2.46 2 2 0 0 0 1.74.81A2.31 2.31 0 0 0 336 585a2 2 0 0 0 .76-.89v.59a2.83 2.83 0 0 0 0 .43h1v-1.31zm-1.46 7.42a1.41 1.41 0 0 1-1.27.62 1.21 1.21 0 0 1-1.13-.59 5.31 5.31 0 0 1 0-3.79 1.22 1.22 0 0 1 1.14-.6 1.43 1.43 0 0 1 1.27.57 3.3 3.3 0 0 1 .4 1.83 3.64 3.64 0 0 1-.42 1.96zm5.05-6.62h-1.11v7.9h5.05v-.91h-3.94v-6.99m7.89-.8h1.17v1.13h-1.17zm1.17 2.36h-2.92v.83h1.87v4.68H347v.83h5.75v-.83h-2.23v-5.51m8.15 3.12a6.17 6.17 0 0 0-1.37-.46l-.7-.18a1.87 1.87 0 0 1-.78-.34.71.71 0 0 1-.24-.56q0-.88 1.44-.88a2 2 0 0 1 1 .22.87.87 0 0 1 .42.64l.95-.12a1.68 1.68 0 0 0-.77-1.13 3 3 0 0 0-1.65-.39 2.87 2.87 0 0 0-1.8.49 1.62 1.62 0 0 0-.62 1.35 1.4 1.4 0 0 0 .22.81 1.71 1.71 0 0 0 .64.54 11.31 11.31 0 0 0 2 .6 2.29 2.29 0 0 1 .88.38.74.74 0 0 1 .29.61q0 1-1.58 1a2.47 2.47 0 0 1-1.25-.23 1.1 1.1 0 0 1-.48-.74l-.93.18a1.8 1.8 0 0 0 .82 1.19 3.62 3.62 0 0 0 1.84.38 3.09 3.09 0 0 0 1.89-.51 1.67 1.67 0 0 0 .68-1.42 1.43 1.43 0 0 0-.24-.84 1.89 1.89 0 0 0-.66-.59zm6.11 2.44a1.21 1.21 0 0 1-.82-.22.87.87 0 0 1-.25-.69v-3.82h2.53v-.83h-2.53v-1.65H363l-.34 1.65h-1v.83h1v3.93a1.57 1.57 0 0 0 .47 1.27 2.16 2.16 0 0 0 1.42.4 7.45 7.45 0 0 0 2-.27v-.8a8.59 8.59 0 0 1-1.77.2z"/>
  <path fill="#e1d5e7" stroke="#9673a6" d="M656.5 560.5h108v40h-108z"/>
  <path d="M667.39 577.49h-2.7v7.9h1.12v-3h1.65a3.32 3.32 0 0 0 1.5-.32 2.37 2.37 0 0 0 1-.9 2.47 2.47 0 0 0 .35-1.31 2.13 2.13 0 0 0-.76-1.74 3.31 3.31 0 0 0-2.16-.63zm1.29 3.58a2 2 0 0 1-1.37.43h-1.49v-3.11h1.44q1.92 0 1.92 1.49a1.49 1.49 0 0 1-.5 1.19zm7.19-2.13a7.33 7.33 0 0 1 1.21.1v1a7.44 7.44 0 0 0-1.24-.11 1.87 1.87 0 0 0-1.52.71 2.76 2.76 0 0 0-.58 1.8v3h-1.05v-4.11a8.22 8.22 0 0 0-.08-1 10.29 10.29 0 0 0-.23-1.18h1a7.15 7.15 0 0 1 .28 1.46 3.69 3.69 0 0 1 .57-1 1.81 1.81 0 0 1 .67-.46 2.54 2.54 0 0 1 .97-.22zm6.65-1.11h-1.17v-1.12h1.17zm0 6.74h2.23v.83H679v-.83h2.47v-4.68h-1.87v-.83h2.92zm6.44-5.62a2.68 2.68 0 0 0-2.1.82 3.57 3.57 0 0 0-.74 2.46 3.67 3.67 0 0 0 .72 2.44 2.58 2.58 0 0 0 2.08.86 2.66 2.66 0 0 0 2.12-.85 3.62 3.62 0 0 0 .74-2.45 3.72 3.72 0 0 0-.7-2.47 2.65 2.65 0 0 0-2.08-.83zm1.3 5.17a1.5 1.5 0 0 1-1.35.63 1.41 1.41 0 0 1-1.27-.64 4.36 4.36 0 0 1 0-3.74 1.48 1.48 0 0 1 1.33-.63 1.43 1.43 0 0 1 1.3.62 3.52 3.52 0 0 1 .4 1.88 3.45 3.45 0 0 1-.41 1.86zm7.21-5.17a7.33 7.33 0 0 1 1.21.1v1a7.44 7.44 0 0 0-1.24-.11 1.87 1.87 0 0 0-1.52.71 2.76 2.76 0 0 0-.58 1.8v3h-1.05v-4.11a8.22 8.22 0 0 0-.08-1 10.29 10.29 0 0 0-.23-1.18h1a7.15 7.15 0 0 1 .28 1.46 3.69 3.69 0 0 1 .57-1 1.81 1.81 0 0 1 .67-.46 2.54 2.54 0 0 1 .97-.23zm6.65-1.11h-1.17v-1.12h1.17zm0 6.74h2.23v.83h-5.75v-.83h2.47v-4.68h-1.87v-.83h2.92zm7.05.05a8.59 8.59 0 0 0 1.74-.2v.8a7.45 7.45 0 0 1-2 .27 2.16 2.16 0 0 1-1.42-.4 1.57 1.57 0 0 1-.47-1.27v-3.93h-1v-.83h1l.34-1.65h.7v1.65h2.53v.83h-2.53v3.82a.87.87 0 0 0 .25.69 1.21 1.21 0 0 0 .87.2zm8.67-5.56H721l-2.67 6.34a5.58 5.58 0 0 1-1.08 1.93 1.83 1.83 0 0 1-1.34.56 3.45 3.45 0 0 1-.73-.06V587a3.17 3.17 0 0 0 .49 0 1.32 1.32 0 0 0 .87-.35 2.61 2.61 0 0 0 .69-1.1l.11-.29-2.75-6.28h1.13l1.55 3.76q.53 1.31.57 1.49l.24-.64zm6.52 7.44a2.32 2.32 0 0 1-.63-1.07 2.51 2.51 0 0 0 1.65-1.29 5.56 5.56 0 0 0 .58-2.73 4.94 4.94 0 0 0-.77-3 2.95 2.95 0 0 0-4.46 0 5 5 0 0 0-.76 3 5.34 5.34 0 0 0 .67 2.92 2.51 2.51 0 0 0 2 1.17 3.61 3.61 0 0 0 .94 1.68 2.13 2.13 0 0 0 1.45.5 4.53 4.53 0 0 0 1-.13v-.79a3.18 3.18 0 0 1-.67.08 1.47 1.47 0 0 1-1-.36zM725 584.6a1.48 1.48 0 0 1-1.36-.81 4.91 4.91 0 0 1-.46-2.39q0-3.12 1.83-3.12t1.82 3.12a5.21 5.21 0 0 1-.43 2.38 1.46 1.46 0 0 1-1.4.82zm9.75-.56v1.35h-1a1.54 1.54 0 0 1 0-.16v-.93a2.32 2.32 0 0 1-.84.93 2.36 2.36 0 0 1-1.19.27 2 2 0 0 1-1.53-.52 2.48 2.48 0 0 1-.48-1.71v-4.22h1.05v4a2.08 2.08 0 0 0 .29 1.27 1.26 1.26 0 0 0 1 .35 1.49 1.49 0 0 0 1.2-.52 2.17 2.17 0 0 0 .44-1.45v-3.67h1.06zm4.67-5.1a2.64 2.64 0 0 0-2.11.84 3.56 3.56 0 0 0-.73 2.41 3.66 3.66 0 0 0 .74 2.47 2.66 2.66 0 0 0 2.13.86 3.3 3.3 0 0 0 1.64-.39A2 2 0 0 0 742 584l-.93-.26a1.28 1.28 0 0 1-.61.71 2.09 2.09 0 0 1-1.06.26 1.55 1.55 0 0 1-1.29-.6 2.65 2.65 0 0 1-.47-1.67h4.52v-.14a3.85 3.85 0 0 0-.71-2.53 2.58 2.58 0 0 0-2.07-.84zm-1.72 2.7a2.15 2.15 0 0 1 .49-1.41 1.58 1.58 0 0 1 1.24-.51q1.53 0 1.69 1.92zm11.45 2.4v1.35h-1a1.54 1.54 0 0 1 0-.16v-.93a2.32 2.32 0 0 1-.84.93 2.36 2.36 0 0 1-1.19.27 2 2 0 0 1-1.53-.52 2.48 2.48 0 0 1-.48-1.71v-4.22h1.05v4a2.08 2.08 0 0 0 .29 1.27 1.26 1.26 0 0 0 1 .35 1.49 1.49 0 0 0 1.2-.52 2.17 2.17 0 0 0 .44-1.45v-3.67h1.06zm7.46-1.73a3.85 3.85 0 0 0-.71-2.53 2.58 2.58 0 0 0-2.09-.84 2.64 2.64 0 0 0-2.11.84 3.56 3.56 0 0 0-.73 2.41 3.66 3.66 0 0 0 .74 2.47 2.66 2.66 0 0 0 2.13.86 3.3 3.3 0 0 0 1.64-.39 2 2 0 0 0 .95-1.11l-.93-.26a1.28 1.28 0 0 1-.61.71 2.09 2.09 0 0 1-1.06.26 1.55 1.55 0 0 1-1.29-.6 2.65 2.65 0 0 1-.47-1.67h4.52zm-4.51-.67a2.15 2.15 0 0 1 .49-1.41 1.58 1.58 0 0 1 1.24-.51q1.53 0 1.69 1.92z"/>
  <path fill="#e1d5e7" stroke="#9673a6" d="M140.5 560.5h80v40h-80z"/>
  <path d="M156.15 577.55h6.3v.91h-2.6v7h-1.11v-7h-2.6zm10.73 1.6a1.81 1.81 0 0 0-.67.46 3.69 3.69 0 0 0-.57 1 7.15 7.15 0 0 0-.28-1.46h-1a10.29 10.29 0 0 1 .23 1.18 8.22 8.22 0 0 1 .08 1v4.11h1.05v-3a2.76 2.76 0 0 1 .58-1.8 1.87 1.87 0 0 1 1.52-.71 7.44 7.44 0 0 1 1.24.11v-1a7.33 7.33 0 0 0-1.21-.1 2.54 2.54 0 0 0-.97.21zm8.93.68a3.85 3.85 0 0 1 .71 2.53v.14H172a2.65 2.65 0 0 0 .47 1.67 1.55 1.55 0 0 0 1.29.6 2.09 2.09 0 0 0 1.06-.26 1.28 1.28 0 0 0 .61-.71l.93.26a2 2 0 0 1-.95 1.11 3.3 3.3 0 0 1-1.64.39 2.66 2.66 0 0 1-2.13-.86 3.66 3.66 0 0 1-.74-2.47 3.56 3.56 0 0 1 .73-2.41 2.64 2.64 0 0 1 2.11-.84 2.58 2.58 0 0 1 2.07.86zm-.38 1.86q-.16-1.92-1.69-1.92a1.58 1.58 0 0 0-1.24.51 2.15 2.15 0 0 0-.49 1.41zm7.58-1.86a3.85 3.85 0 0 1 .71 2.53v.14h-4.52a2.65 2.65 0 0 0 .47 1.67 1.55 1.55 0 0 0 1.29.6 2.09 2.09 0 0 0 1.06-.26 1.28 1.28 0 0 0 .61-.71l.93.26a2 2 0 0 1-.95 1.11 3.3 3.3 0 0 1-1.64.39 2.66 2.66 0 0 1-2.13-.86 3.66 3.66 0 0 1-.74-2.47 3.56 3.56 0 0 1 .73-2.41 2.64 2.64 0 0 1 2.11-.84 2.58 2.58 0 0 1 2.06.86zm-.38 1.86q-.16-1.92-1.69-1.92a1.58 1.58 0 0 0-1.24.51 2.15 2.15 0 0 0-.49 1.41zm8.06.26a2 2 0 0 0-.48-.42 3.64 3.64 0 0 0-.64-.31 11.31 11.31 0 0 0-1.17-.34l-.76-.2a2.84 2.84 0 0 1-.62-.24 1.2 1.2 0 0 1-.42-.36 1 1 0 0 1-.16-.57q0-1.25 1.66-1.25a2 2 0 0 1 1.15.3 1.48 1.48 0 0 1 .56 1l1.1-.19a2.34 2.34 0 0 0-.91-1.46 3.45 3.45 0 0 0-1.9-.43 3.29 3.29 0 0 0-2 .55 1.85 1.85 0 0 0-.71 1.56 2.11 2.11 0 0 0 .12.76 1.68 1.68 0 0 0 .36.57 2.22 2.22 0 0 0 .64.44 8.18 8.18 0 0 0 1.34.44l.79.2a3.28 3.28 0 0 1 .7.27 1.46 1.46 0 0 1 .5.42 1.1 1.1 0 0 1 .19.67 1.21 1.21 0 0 1-.48 1 2.33 2.33 0 0 1-1.42.36 2.45 2.45 0 0 1-1.38-.34 1.67 1.67 0 0 1-.68-1.1l-1.08.22q.43 2.1 3.11 2.1a3.63 3.63 0 0 0 2.25-.6 2 2 0 0 0 .79-1.68 2.28 2.28 0 0 0-.11-.76 1.83 1.83 0 0 0-.34-.56zm6.72-2.13a3.85 3.85 0 0 1 .71 2.53v.14h-4.52a2.65 2.65 0 0 0 .47 1.67 1.55 1.55 0 0 0 1.29.6 2.09 2.09 0 0 0 1.06-.26 1.28 1.28 0 0 0 .61-.71l.93.26a2 2 0 0 1-.95 1.11 3.3 3.3 0 0 1-1.64.39 2.66 2.66 0 0 1-2.13-.86 3.66 3.66 0 0 1-.74-2.47 3.56 3.56 0 0 1 .73-2.41 2.64 2.64 0 0 1 2.11-.84 2.58 2.58 0 0 1 2.08.87zm-.41 1.88q-.16-1.92-1.69-1.92a1.58 1.58 0 0 0-1.24.51 2.15 2.15 0 0 0-.49 1.41zm6.1 3a1.21 1.21 0 0 1-.82-.22.87.87 0 0 1-.25-.69v-3.82h2.53v-.83h-2.53v-1.65h-.7l-.34 1.65h-1v.83h1v3.93a1.57 1.57 0 0 0 .47 1.27 2.16 2.16 0 0 0 1.42.4 7.45 7.45 0 0 0 2-.27v-.8a8.59 8.59 0 0 1-1.75.18z"/>
  <path fill="#e1d5e7" stroke="#9673a6" d="M560.5 640.5h80v40h-80z"/>
  <path d="M588.75 661.46a2.28 2.28 0 0 1 .11.76 2 2 0 0 1-.79 1.68 3.63 3.63 0 0 1-2.25.6q-2.68 0-3.11-2.1l1.08-.22a1.67 1.67 0 0 0 .68 1.1 2.45 2.45 0 0 0 1.38.34 2.33 2.33 0 0 0 1.42-.36 1.21 1.21 0 0 0 .48-1 1.1 1.1 0 0 0-.19-.67 1.46 1.46 0 0 0-.5-.42 3.28 3.28 0 0 0-.7-.27l-.79-.2a8.18 8.18 0 0 1-1.34-.44 2.22 2.22 0 0 1-.64-.44 1.68 1.68 0 0 1-.36-.57 2.11 2.11 0 0 1-.12-.76 1.85 1.85 0 0 1 .71-1.56 3.29 3.29 0 0 1 2-.55 3.45 3.45 0 0 1 1.9.43 2.34 2.34 0 0 1 .91 1.46l-1.1.19a1.48 1.48 0 0 0-.56-1 2 2 0 0 0-1.15-.3q-1.66 0-1.66 1.25a1 1 0 0 0 .16.57 1.2 1.2 0 0 0 .42.36 2.84 2.84 0 0 0 .62.24l.76.2a11.31 11.31 0 0 1 1.17.34 3.64 3.64 0 0 1 .64.31 2 2 0 0 1 .48.42 1.83 1.83 0 0 1 .34.61zm4.11 1.93a.87.87 0 0 1-.25-.69v-3.82h2.53v-.83h-2.54v-1.65h-.7l-.34 1.65h-1v.83h1v3.93a1.57 1.57 0 0 0 .47 1.27 2.16 2.16 0 0 0 1.42.4 7.45 7.45 0 0 0 2-.27v-.8a8.59 8.59 0 0 1-1.74.2 1.21 1.21 0 0 1-.86-.22zm10.25.35a1.69 1.69 0 0 0 .35 0v.66a3.54 3.54 0 0 1-.81.09 1.07 1.07 0 0 1-.85-.31 1.58 1.58 0 0 1-.3-1 2.55 2.55 0 0 1-.9 1 2.45 2.45 0 0 1-1.28.31 1.81 1.81 0 0 1-1.39-.5 2 2 0 0 1-.47-1.38q0-2 2.66-2.07h1.38v-.35a1.61 1.61 0 0 0-.31-1.1 1.29 1.29 0 0 0-1-.34 1.59 1.59 0 0 0-1 .25 1.09 1.09 0 0 0-.36.76l-1.1-.1q.27-1.71 2.48-1.71a2.5 2.5 0 0 1 1.76.55 2.06 2.06 0 0 1 .59 1.58v2.73a1.58 1.58 0 0 0 .12.71.48.48 0 0 0 .42.22zm-1.66-2.48h-1.11a3.21 3.21 0 0 0-1.05.15 1.19 1.19 0 0 0-.57.43 1.32 1.32 0 0 0-.2.77 1.12 1.12 0 0 0 .26.77 1 1 0 0 0 .76.29 1.85 1.85 0 0 0 1-.27 1.87 1.87 0 0 0 .67-.72 2 2 0 0 0 .24-.93zm7.11 2.12a1.71 1.71 0 0 1-1 .31 1.55 1.55 0 0 1-1.35-.6 3.31 3.31 0 0 1-.43-1.9 3.14 3.14 0 0 1 .43-1.86 1.58 1.58 0 0 1 1.36-.57 1.64 1.64 0 0 1 1.07.31 1.35 1.35 0 0 1 .47.84l1.13-.08a2.15 2.15 0 0 0-.86-1.38 2.87 2.87 0 0 0-1.76-.51 2.77 2.77 0 0 0-2.19.85 4.33 4.33 0 0 0 0 4.88 2.77 2.77 0 0 0 2.19.84 3.07 3.07 0 0 0 1.28-.26 2.35 2.35 0 0 0 .92-.72 2.14 2.14 0 0 0 .42-1l-1.11-.07a1.39 1.39 0 0 1-.58.92zm6.39-2.61l2.57-2.72h-1.24l-2.78 3.08v-5.43h-1.05v8.7h1.05V662l.77-.57 2.14 2.92h1.24z"/>
  <path fill="#e1d5e7" stroke="#9673a6" d="M470.5 560.5h80v40h-80z"/>
  <path d="M481.24 576l-3 7.9h1.15l.8-2.24h3.3l.81 2.24h1.14l-2.94-7.9zm-.74 4.79l.88-2.48.4-1.24.07-.23.34 1 1 2.93zm9.87-3.35a7.33 7.33 0 0 1 1.21.1v1a7.44 7.44 0 0 0-1.24-.11 1.87 1.87 0 0 0-1.52.71 2.76 2.76 0 0 0-.58 1.8v3h-1.05v-4.11a8.22 8.22 0 0 0-.08-1 10.29 10.29 0 0 0-.23-1.18h1a7.15 7.15 0 0 1 .28 1.46 3.69 3.69 0 0 1 .57-1 1.81 1.81 0 0 1 .67-.46 2.54 2.54 0 0 1 .97-.22zm7.2 0a7.33 7.33 0 0 1 1.21.1v1a7.44 7.44 0 0 0-1.24-.11 1.87 1.87 0 0 0-1.52.71 2.76 2.76 0 0 0-.58 1.8v3h-1.05v-4.11a8.22 8.22 0 0 0-.08-1 10.29 10.29 0 0 0-.23-1.18h1a7.15 7.15 0 0 1 .28 1.46 3.69 3.69 0 0 1 .57-1 1.81 1.81 0 0 1 .67-.46 2.54 2.54 0 0 1 .97-.22zm8.27 5.57a1.58 1.58 0 0 1-.12-.71v-2.73a2.06 2.06 0 0 0-.59-1.58 2.5 2.5 0 0 0-1.76-.55q-2.21 0-2.48 1.71l1.1.1a1.09 1.09 0 0 1 .36-.76 1.59 1.59 0 0 1 1-.25 1.29 1.29 0 0 1 1 .34 1.61 1.61 0 0 1 .31 1.1v.32h-1.38q-2.66 0-2.66 2.07a2 2 0 0 0 .47 1.38 1.81 1.81 0 0 0 1.39.5 2.45 2.45 0 0 0 1.28-.31 2.55 2.55 0 0 0 .9-1 1.58 1.58 0 0 0 .3 1 1.07 1.07 0 0 0 .85.31 3.54 3.54 0 0 0 .81-.09v-.66a1.69 1.69 0 0 1-.35 0 .48.48 0 0 1-.43-.2zm-1.19-1.72a2 2 0 0 1-.24.93 1.87 1.87 0 0 1-.67.72 1.85 1.85 0 0 1-1 .27 1 1 0 0 1-.76-.29 1.12 1.12 0 0 1-.26-.77 1.32 1.32 0 0 1 .2-.77 1.19 1.19 0 0 1 .57-.43 3.21 3.21 0 0 1 1.05-.15h1.11zm8.1-3.73h1.11l-2.67 6.34a5.58 5.58 0 0 1-1.08 1.93 1.83 1.83 0 0 1-1.34.56 3.45 3.45 0 0 1-.73-.06v-.79a3.17 3.17 0 0 0 .49 0 1.32 1.32 0 0 0 .87-.35 2.61 2.61 0 0 0 .69-1.1l.11-.29-2.75-6.28h1.13l1.55 3.76q.53 1.31.57 1.49l.24-.64zm4 5.43h3.94v.91h-5.06V576h1.12zm9.06-6.66h-1.17v-1.12h1.17zm0 6.74H528v.83h-5.75v-.83h2.47v-4.68h-1.82v-.83h2.92zm8.81-1.82a1.43 1.43 0 0 1 .24.84 1.67 1.67 0 0 1-.68 1.42 3.09 3.09 0 0 1-1.89.51 3.62 3.62 0 0 1-1.84-.38 1.8 1.8 0 0 1-.82-1.19l.93-.18a1.1 1.1 0 0 0 .48.74 2.47 2.47 0 0 0 1.25.23q1.58 0 1.58-1a.74.74 0 0 0-.29-.61 2.29 2.29 0 0 0-.88-.38 11.31 11.31 0 0 1-2-.6 1.71 1.71 0 0 1-.64-.54 1.4 1.4 0 0 1-.22-.81 1.62 1.62 0 0 1 .62-1.35 2.87 2.87 0 0 1 1.8-.49 3 3 0 0 1 1.65.39 1.68 1.68 0 0 1 .77 1.13l-.95.12a.87.87 0 0 0-.42-.64 2 2 0 0 0-1-.22q-1.44 0-1.44.88a.71.71 0 0 0 .24.56 1.87 1.87 0 0 0 .78.34l.7.18a6.17 6.17 0 0 1 1.37.46 1.89 1.89 0 0 1 .67.58zm7.19 1.67v.8a7.45 7.45 0 0 1-2 .27 2.16 2.16 0 0 1-1.42-.4 1.57 1.57 0 0 1-.47-1.27v-3.93h-1v-.83h1l.34-1.65h.7v1.65h2.53v.83H539v3.82a.87.87 0 0 0 .25.69 1.21 1.21 0 0 0 .82.22 8.59 8.59 0 0 0 1.75-.21z"/>
  <path fill="#e1d5e7" stroke="#9673a6" d="M560.5 560.5h80v40h-80z"/>
  <path d="M587.21 576.82h1.18l-3 7.9h-1.16l-3-7.9h1.18l1.88 5.29q.18.5.49 1.63.23-.87.49-1.63zm6.94 2.29a3.85 3.85 0 0 1 .71 2.53v.14h-4.52a2.65 2.65 0 0 0 .47 1.67 1.55 1.55 0 0 0 1.29.6 2.09 2.09 0 0 0 1.06-.26 1.28 1.28 0 0 0 .61-.71l.93.26a2 2 0 0 1-.95 1.11 3.3 3.3 0 0 1-1.64.39A2.66 2.66 0 0 1 590 584a3.66 3.66 0 0 1-.74-2.47 3.56 3.56 0 0 1 .73-2.41 2.64 2.64 0 0 1 2.11-.84 2.58 2.58 0 0 1 2.05.83zm-.38 1.86q-.16-1.92-1.69-1.92a1.58 1.58 0 0 0-1.24.51 2.15 2.15 0 0 0-.49 1.41zm6.58 2.75a1.71 1.71 0 0 1-1 .31 1.55 1.55 0 0 1-1.35-.6 3.31 3.31 0 0 1-.43-1.9 3.14 3.14 0 0 1 .43-1.86 1.58 1.58 0 0 1 1.36-.57 1.64 1.64 0 0 1 1.07.31 1.35 1.35 0 0 1 .47.84l1.13-.08a2.15 2.15 0 0 0-.86-1.38 2.87 2.87 0 0 0-1.76-.51 2.77 2.77 0 0 0-2.19.85 4.33 4.33 0 0 0 0 4.88 2.77 2.77 0 0 0 2.19.84 3.07 3.07 0 0 0 1.28-.26 2.35 2.35 0 0 0 .92-.72 2.14 2.14 0 0 0 .42-1l-1.11-.07a1.39 1.39 0 0 1-.57.92zm5.9 0a.87.87 0 0 1-.25-.72v-3.82h2.53v-.83H606v-1.65h-.7l-.34 1.65h-1v.83h1v3.93a1.57 1.57 0 0 0 .47 1.27 2.16 2.16 0 0 0 1.42.4 7.45 7.45 0 0 0 2-.27v-.8a8.59 8.59 0 0 1-1.74.2 1.21 1.21 0 0 1-.86-.18zm9.53-4.64a3.72 3.72 0 0 1 .7 2.47 3.62 3.62 0 0 1-.74 2.45 2.66 2.66 0 0 1-2.12.85 2.58 2.58 0 0 1-2.08-.86 3.67 3.67 0 0 1-.72-2.44 3.57 3.57 0 0 1 .74-2.46 2.68 2.68 0 0 1 2.1-.82 2.65 2.65 0 0 1 2.13.82zm-.41 2.47a3.52 3.52 0 0 0-.4-1.88 1.43 1.43 0 0 0-1.3-.62 1.48 1.48 0 0 0-1.33.63 4.36 4.36 0 0 0 0 3.74 1.41 1.41 0 0 0 1.27.64 1.5 1.5 0 0 0 1.35-.63 3.45 3.45 0 0 0 .42-1.88zm6.8-3.28a2.54 2.54 0 0 0-.94.16 1.81 1.81 0 0 0-.67.46 3.69 3.69 0 0 0-.57 1 7.15 7.15 0 0 0-.28-1.46h-1a10.29 10.29 0 0 1 .23 1.18 8.22 8.22 0 0 1 .08 1v4.11h.98v-3a2.76 2.76 0 0 1 .58-1.8 1.87 1.87 0 0 1 1.52-.71 7.44 7.44 0 0 1 1.24.11v-1a7.33 7.33 0 0 0-1.17-.05z"/>
  <path fill="#dae8fc" stroke="#6c8ebf" d="M335.34 460.5h156.32a6.18 6.18 0 0 1 6.34 6v28a6.18 6.18 0 0 1-6.34 6H335.34a6.18 6.18 0 0 1-6.34-6v-28a6.18 6.18 0 0 1 6.34-6z"/>
  <path d="M337.86 476.65l-3 7.9H336l.8-2.24h3.3l.81 2.24h1.14l-2.94-7.9zm-.74 4.79L338 479l.4-1.24.07-.23.34 1 1 2.93zm9-3.36a2 2 0 0 0-2 1.17v-3.4h-1.05v8.7h1v-.96a2.25 2.25 0 0 0 3.66.25 4.27 4.27 0 0 0 .59-2.49q.14-3.26-2.15-3.26zm.85 5.19a1.22 1.22 0 0 1-1.15.61 1.4 1.4 0 0 1-1.27-.59 3.38 3.38 0 0 1-.39-1.82 3.75 3.75 0 0 1 .4-1.94 1.39 1.39 0 0 1 1.27-.64 1.23 1.23 0 0 1 1.13.59 3.79 3.79 0 0 1 .36 1.9 3.89 3.89 0 0 1-.32 1.9zm8.23-1.38a1.43 1.43 0 0 1 .24.84 1.67 1.67 0 0 1-.68 1.42 3.09 3.09 0 0 1-1.89.51 3.62 3.62 0 0 1-1.84-.38 1.8 1.8 0 0 1-.82-1.19l.93-.18a1.1 1.1 0 0 0 .48.74 2.47 2.47 0 0 0 1.25.23q1.58 0 1.58-1a.74.74 0 0 0-.29-.61 2.29 2.29 0 0 0-.88-.38 11.31 11.31 0 0 1-2-.6 1.71 1.71 0 0 1-.64-.54 1.4 1.4 0 0 1-.22-.81 1.62 1.62 0 0 1 .62-1.35 2.87 2.87 0 0 1 1.8-.49 3 3 0 0 1 1.65.39 1.68 1.68 0 0 1 .77 1.13l-.95.12a.87.87 0 0 0-.42-.64 2 2 0 0 0-1-.22q-1.44 0-1.44.88a.71.71 0 0 0 .24.56 1.87 1.87 0 0 0 .78.34l.7.18a6.17 6.17 0 0 1 1.37.46 1.89 1.89 0 0 1 .71.61zm5.45 1.87a8.59 8.59 0 0 0 1.74-.2v.8a7.45 7.45 0 0 1-2 .27 2.16 2.16 0 0 1-1.42-.4 1.57 1.57 0 0 1-.47-1.27V479h-1v-.83h1l.34-1.65h.7v1.65h2.53v.83h-2.53v3.82a.87.87 0 0 0 .25.69 1.21 1.21 0 0 0 .91.27zm7.9-5.68a7.33 7.33 0 0 1 1.21.1v1a7.44 7.44 0 0 0-1.24-.11 1.87 1.87 0 0 0-1.52.71 2.76 2.76 0 0 0-.58 1.8v3h-1.02v-4.11a8.22 8.22 0 0 0-.08-1 10.29 10.29 0 0 0-.23-1.18h1a7.15 7.15 0 0 1 .28 1.46 3.69 3.69 0 0 1 .57-1 1.81 1.81 0 0 1 .67-.46 2.54 2.54 0 0 1 .99-.19zm8.27 5.57a1.58 1.58 0 0 1-.12-.71v-2.73a2.06 2.06 0 0 0-.59-1.58 2.5 2.5 0 0 0-1.76-.55q-2.21 0-2.48 1.71l1.1.1a1.09 1.09 0 0 1 .36-.76 1.59 1.59 0 0 1 1-.25 1.29 1.29 0 0 1 1 .34 1.61 1.61 0 0 1 .31 1.1v.35h-1.38q-2.66 0-2.66 2.07a2 2 0 0 0 .47 1.38 1.81 1.81 0 0 0 1.39.5 2.45 2.45 0 0 0 1.28-.31 2.55 2.55 0 0 0 .9-1 1.58 1.58 0 0 0 .3 1 1.07 1.07 0 0 0 .85.31 3.54 3.54 0 0 0 .81-.09v-.66a1.69 1.69 0 0 1-.35 0 .48.48 0 0 1-.39-.2zm-1.19-1.72a2 2 0 0 1-.24.93 1.87 1.87 0 0 1-.67.72 1.85 1.85 0 0 1-1 .27 1 1 0 0 1-.76-.29 1.12 1.12 0 0 1-.26-.77 1.32 1.32 0 0 1 .2-.77 1.19 1.19 0 0 1 .57-.43 3.21 3.21 0 0 1 1.05-.15h1.11zm7.62.65l1.11.07a2.14 2.14 0 0 1-.42 1 2.35 2.35 0 0 1-.92.72 3.07 3.07 0 0 1-1.28.26 2.77 2.77 0 0 1-2.19-.84 4.33 4.33 0 0 1 0-4.88 2.77 2.77 0 0 1 2.19-.85 2.87 2.87 0 0 1 1.76.51 2.15 2.15 0 0 1 .86 1.38l-1.12.08a1.35 1.35 0 0 0-.47-.84 1.64 1.64 0 0 0-1.07-.31 1.58 1.58 0 0 0-1.36.57 3.14 3.14 0 0 0-.43 1.86 3.31 3.31 0 0 0 .43 1.9 1.55 1.55 0 0 0 1.35.6 1.71 1.71 0 0 0 1-.31 1.39 1.39 0 0 0 .61-.9zm6.21 1.18a8.59 8.59 0 0 0 1.74-.2v.8a7.45 7.45 0 0 1-2 .27 2.16 2.16 0 0 1-1.42-.4 1.57 1.57 0 0 1-.47-1.27V479h-1v-.83h1l.34-1.65h.7v1.65H391v.83h-2.53v3.82a.87.87 0 0 0 .25.69 1.21 1.21 0 0 0 .78.27zm9.48-2.15a2.28 2.28 0 0 1 .11.76 2 2 0 0 1-.79 1.68 3.63 3.63 0 0 1-2.25.6q-2.68 0-3.11-2.1l1.08-.22a1.67 1.67 0 0 0 .68 1.1 2.45 2.45 0 0 0 1.38.34 2.33 2.33 0 0 0 1.42-.36 1.21 1.21 0 0 0 .48-1 1.1 1.1 0 0 0-.19-.67 1.46 1.46 0 0 0-.5-.42 3.28 3.28 0 0 0-.7-.27l-.79-.2a8.18 8.18 0 0 1-1.34-.44 2.22 2.22 0 0 1-.64-.44 1.68 1.68 0 0 1-.36-.57 2.11 2.11 0 0 1-.12-.76 1.85 1.85 0 0 1 .71-1.56 3.29 3.29 0 0 1 2-.55 3.45 3.45 0 0 1 1.9.43 2.34 2.34 0 0 1 .91 1.46l-1.1.19a1.48 1.48 0 0 0-.56-1 2 2 0 0 0-1.15-.3q-1.66 0-1.66 1.25a1 1 0 0 0 .16.57 1.2 1.2 0 0 0 .42.36 2.84 2.84 0 0 0 .62.24l.76.2a11.31 11.31 0 0 1 1.17.34 3.64 3.64 0 0 1 .64.31 2 2 0 0 1 .48.42 1.83 1.83 0 0 1 .4.63zm4.32-3.53a2.64 2.64 0 0 0-2.11.84 3.56 3.56 0 0 0-.73 2.41 3.66 3.66 0 0 0 .74 2.47 2.66 2.66 0 0 0 2.13.86 3.3 3.3 0 0 0 1.64-.39 2 2 0 0 0 .95-1.11l-.93-.26a1.28 1.28 0 0 1-.61.71 2.09 2.09 0 0 1-1.06.26 1.55 1.55 0 0 1-1.29-.6 2.65 2.65 0 0 1-.47-1.67h4.52v-.14a3.85 3.85 0 0 0-.71-2.53 2.58 2.58 0 0 0-2.03-.83zm-1.72 2.7a2.15 2.15 0 0 1 .49-1.41 1.58 1.58 0 0 1 1.24-.51q1.53 0 1.69 1.92zm10.46-2.13v.55a1.93 1.93 0 0 0-.74-.82 2.41 2.41 0 0 0-1.21-.26q-2.29 0-2.29 3.32a4.39 4.39 0 0 0 .56 2.45 2 2 0 0 0 1.74.82 2.17 2.17 0 0 0 1.19-.3 2.23 2.23 0 0 0 .77-.92V487h.98v-8.83h-1a2.08 2.08 0 0 0 0 .48zm-.43 4.6a1.4 1.4 0 0 1-1.27.64 1.22 1.22 0 0 1-1.12-.6 3.82 3.82 0 0 1-.36-1.89 3.88 3.88 0 0 1 .35-1.9 1.22 1.22 0 0 1 1.14-.6 1.42 1.42 0 0 1 1.27.58 3.29 3.29 0 0 1 .4 1.83 3.68 3.68 0 0 1-.44 1.95zm8.7-.05v1.35h-1a1.54 1.54 0 0 1 0-.16v-.93a2.32 2.32 0 0 1-.84.93 2.36 2.36 0 0 1-1.19.27 2 2 0 0 1-1.53-.52 2.48 2.48 0 0 1-.48-1.71v-4.22h1.05v4a2.08 2.08 0 0 0 .29 1.27 1.26 1.26 0 0 0 1 .35 1.49 1.49 0 0 0 1.2-.52 2.17 2.17 0 0 0 .44-1.45v-3.67h1.06zm4.67-5.1a2.64 2.64 0 0 0-2.11.84 3.56 3.56 0 0 0-.73 2.41 3.66 3.66 0 0 0 .74 2.47 2.66 2.66 0 0 0 2.13.86 3.3 3.3 0 0 0 1.64-.39 2 2 0 0 0 .95-1.11l-.93-.26a1.28 1.28 0 0 1-.61.71 2.09 2.09 0 0 1-1.06.26 1.55 1.55 0 0 1-1.29-.6 2.65 2.65 0 0 1-.47-1.67h4.52v-.14a3.85 3.85 0 0 0-.71-2.53 2.58 2.58 0 0 0-2.11-.85zm-1.72 2.7a2.15 2.15 0 0 1 .49-1.41 1.58 1.58 0 0 1 1.24-.51q1.53 0 1.69 1.92zm11-2.15a2.44 2.44 0 0 1 .5 1.68v4.22h-1.06v-4.07a1.89 1.89 0 0 0-.31-1.18 1.18 1.18 0 0 0-1-.39 1.52 1.52 0 0 0-1.19.53 2.1 2.1 0 0 0-.47 1.44v3.67h-1.05v-6.35h1a1.54 1.54 0 0 1 0 .16v.93a2.11 2.11 0 0 1 2-1.2 1.94 1.94 0 0 1 1.5.56zm5.77 5.13a8.59 8.59 0 0 0 1.74-.2v.8a7.45 7.45 0 0 1-2 .27 2.16 2.16 0 0 1-1.42-.4 1.57 1.57 0 0 1-.47-1.27V479h-1v-.83h1l.34-1.65h.7v1.65h2.53v.83h-2.53v3.82a.87.87 0 0 0 .25.69 1.21 1.21 0 0 0 .78.27zm7.35-.05h2.23v.83h-5.75v-.83h2.47V479h-1.87v-.83h2.92zm0-6.74h-1.17v-1.12h1.17zm8.82 6.68a1.58 1.58 0 0 1-.16-.67v-2.73a2.06 2.06 0 0 0-.59-1.58 2.5 2.5 0 0 0-1.76-.55q-2.21 0-2.48 1.71l1.1.1a1.09 1.09 0 0 1 .36-.76 1.59 1.59 0 0 1 1-.25 1.29 1.29 0 0 1 1 .34 1.61 1.61 0 0 1 .31 1.1v.35h-1.38q-2.66 0-2.66 2.07a2 2 0 0 0 .47 1.38 1.81 1.81 0 0 0 1.39.5 2.45 2.45 0 0 0 1.28-.31 2.55 2.55 0 0 0 .9-1 1.58 1.58 0 0 0 .3 1 1.07 1.07 0 0 0 .85.31 3.54 3.54 0 0 0 .81-.09v-.66a1.69 1.69 0 0 1-.35 0 .48.48 0 0 1-.47-.26zm-1.19-1.72a2 2 0 0 1-.24.93 1.87 1.87 0 0 1-.67.72 1.85 1.85 0 0 1-1 .27 1 1 0 0 1-.76-.29 1.12 1.12 0 0 1-.26-.77 1.32 1.32 0 0 1 .2-.77 1.19 1.19 0 0 1 .57-.43 3.21 3.21 0 0 1 1.05-.15h1.11zm6.72 1.78h2.23v.83h-5.75v-.83h2.47v-7h-1.69v-.83h2.75zm5.4-.08h3.94v.91h-5.06v-7.9H467zm9.06.08h2.23v.83h-5.75v-.83H475V479h-1.87v-.83h2.92zm0-6.74h-1.17v-1.12h1.17zm8.81 4.92a1.43 1.43 0 0 1 .24.84 1.67 1.67 0 0 1-.68 1.42 3.09 3.09 0 0 1-1.89.51 3.62 3.62 0 0 1-1.84-.38 1.8 1.8 0 0 1-.82-1.19l.93-.18a1.1 1.1 0 0 0 .48.74 2.47 2.47 0 0 0 1.25.23q1.58 0 1.58-1a.74.74 0 0 0-.29-.61 2.29 2.29 0 0 0-.88-.38 11.31 11.31 0 0 1-2-.6 1.71 1.71 0 0 1-.64-.54 1.4 1.4 0 0 1-.22-.81 1.62 1.62 0 0 1 .62-1.35 2.87 2.87 0 0 1 1.8-.49 3 3 0 0 1 1.65.39 1.68 1.68 0 0 1 .77 1.13l-.95.12a.87.87 0 0 0-.42-.64 2 2 0 0 0-1-.22q-1.44 0-1.44.88a.71.71 0 0 0 .24.56 1.87 1.87 0 0 0 .78.34l.7.18a6.17 6.17 0 0 1 1.37.46 1.89 1.89 0 0 1 .57.59zm7.19 1.67v.8a7.45 7.45 0 0 1-2 .27 2.16 2.16 0 0 1-1.42-.4 1.57 1.57 0 0 1-.47-1.27V479h-1v-.83h1l.34-1.65h.7v1.65h2.53v.83h-2.53v3.82a.87.87 0 0 0 .25.69 1.21 1.21 0 0 0 .82.22 8.59 8.59 0 0 0 1.69-.15z"/>
  <path fill="#dae8fc" stroke="#6c8ebf" d="M643.64 360.5h93.72a6.2 6.2 0 0 1 6.39 6v28a6.2 6.2 0 0 1-6.39 6h-93.72a6.2 6.2 0 0 1-6.39-6v-28a6.2 6.2 0 0 1 6.39-6z"/>
  <path d="M647 375.74l-3 7.9h1.15l.8-2.24h3.3l.81 2.24h1.14l-2.94-7.9zm-.74 4.79l.88-2.48.4-1.24.07-.23.34 1 1 2.93zm9-3.36a2 2 0 0 0-2 1.17v-3.4h-1.05v8.7h1v-.96a2.25 2.25 0 0 0 3.66.25 4.27 4.27 0 0 0 .59-2.49q.13-3.27-2.16-3.27zm.85 5.19a1.22 1.22 0 0 1-1.11.64 1.4 1.4 0 0 1-1.27-.59 3.38 3.38 0 0 1-.39-1.82 3.75 3.75 0 0 1 .4-1.94A1.39 1.39 0 0 1 655 378a1.23 1.23 0 0 1 1.13.59 3.79 3.79 0 0 1 .36 1.9 3.89 3.89 0 0 1-.35 1.88zm8.23-1.38a1.43 1.43 0 0 1 .24.84 1.67 1.67 0 0 1-.68 1.42 3.09 3.09 0 0 1-1.89.51 3.62 3.62 0 0 1-1.84-.38 1.8 1.8 0 0 1-.82-1.19l.93-.18a1.1 1.1 0 0 0 .48.74 2.47 2.47 0 0 0 1.24.26q1.58 0 1.58-1a.74.74 0 0 0-.29-.61 2.29 2.29 0 0 0-.88-.38 11.31 11.31 0 0 1-2-.6 1.71 1.71 0 0 1-.64-.54 1.4 1.4 0 0 1-.22-.81 1.62 1.62 0 0 1 .62-1.35 2.87 2.87 0 0 1 1.8-.49 3 3 0 0 1 1.65.39 1.68 1.68 0 0 1 .77 1.13l-.95.12a.87.87 0 0 0-.42-.64 2 2 0 0 0-1-.22q-1.44 0-1.44.88a.71.71 0 0 0 .24.56 1.87 1.87 0 0 0 .78.34l.7.18a6.17 6.17 0 0 1 1.37.46 1.89 1.89 0 0 1 .7.58zm5.45 1.87a8.59 8.59 0 0 0 1.74-.2v.8a7.45 7.45 0 0 1-2 .27 2.16 2.16 0 0 1-1.42-.4 1.57 1.57 0 0 1-.47-1.27v-3.93h-1v-.83h1l.34-1.65h.7v1.65h2.53v.83h-2.53V382a.87.87 0 0 0 .25.69 1.21 1.21 0 0 0 .89.17zm7.9-5.68a7.33 7.33 0 0 1 1.21.1v1a7.44 7.44 0 0 0-1.24-.11 1.87 1.87 0 0 0-1.52.71 2.76 2.76 0 0 0-.58 1.8v3h-1.05v-4.11a8.22 8.22 0 0 0-.08-1 10.29 10.29 0 0 0-.23-1.18h1a7.15 7.15 0 0 1 .28 1.46 3.69 3.69 0 0 1 .57-1 1.81 1.81 0 0 1 .67-.46 2.54 2.54 0 0 1 1-.2zm8.27 5.57a1.58 1.58 0 0 1-.12-.71v-2.73a2.06 2.06 0 0 0-.59-1.58 2.5 2.5 0 0 0-1.76-.55q-2.21 0-2.48 1.71l1.1.1a1.09 1.09 0 0 1 .36-.76 1.59 1.59 0 0 1 1-.25 1.29 1.29 0 0 1 1 .34 1.61 1.61 0 0 1 .31 1.1v.35h-1.38q-2.66 0-2.66 2.07a2 2 0 0 0 .47 1.38 1.81 1.81 0 0 0 1.39.5 2.45 2.45 0 0 0 1.28-.31 2.55 2.55 0 0 0 .9-1 1.58 1.58 0 0 0 .3 1 1.07 1.07 0 0 0 .85.31 3.54 3.54 0 0 0 .81-.09v-.66a1.69 1.69 0 0 1-.35 0 .48.48 0 0 1-.39-.21zM684.8 381a2 2 0 0 1-.24.93 1.87 1.87 0 0 1-.67.72 1.85 1.85 0 0 1-1 .27 1 1 0 0 1-.76-.29 1.12 1.12 0 0 1-.26-.77 1.32 1.32 0 0 1 .2-.77 1.19 1.19 0 0 1 .57-.43 3.21 3.21 0 0 1 1.05-.15h1.11zm7.62.65l1.11.07a2.14 2.14 0 0 1-.42 1 2.35 2.35 0 0 1-.92.72 3.07 3.07 0 0 1-1.28.26 2.77 2.77 0 0 1-2.19-.84 4.33 4.33 0 0 1 0-4.88 2.77 2.77 0 0 1 2.19-.85 2.87 2.87 0 0 1 1.76.51 2.15 2.15 0 0 1 .86 1.38l-1.12.08a1.35 1.35 0 0 0-.47-.84 1.64 1.64 0 0 0-1.07-.31 1.58 1.58 0 0 0-1.36.57 3.14 3.14 0 0 0-.43 1.86 3.31 3.31 0 0 0 .43 1.9 1.55 1.55 0 0 0 1.35.6 1.71 1.71 0 0 0 1-.31 1.39 1.39 0 0 0 .56-.89zm6.21 1.18a8.59 8.59 0 0 0 1.74-.2v.8a7.45 7.45 0 0 1-2 .27 2.16 2.16 0 0 1-1.42-.4 1.57 1.57 0 0 1-.47-1.27v-3.93h-1v-.83h1l.34-1.65h.7v1.65h2.53v.83h-2.53v3.9a.87.87 0 0 0 .25.69 1.21 1.21 0 0 0 .86.17zm8 1.88a2.32 2.32 0 0 1-.63-1.07 2.51 2.51 0 0 0 1.65-1.29 5.56 5.56 0 0 0 .58-2.73 4.94 4.94 0 0 0-.77-3 2.95 2.95 0 0 0-4.46 0 5 5 0 0 0-.76 3 5.34 5.34 0 0 0 .67 2.92 2.51 2.51 0 0 0 2 1.17 3.61 3.61 0 0 0 .94 1.68 2.13 2.13 0 0 0 1.45.5 4.53 4.53 0 0 0 1-.13V385a3.18 3.18 0 0 1-.67.08 1.47 1.47 0 0 1-1.02-.34zm-1.41-1.89a1.48 1.48 0 0 1-1.36-.81 4.91 4.91 0 0 1-.46-2.39q0-3.12 1.83-3.12t1.82 3.12a5.21 5.21 0 0 1-.43 2.38 1.46 1.46 0 0 1-1.41.85zm9.75-.56v1.35h-1a1.54 1.54 0 0 1 0-.16v-.93a2.32 2.32 0 0 1-.84.93 2.36 2.36 0 0 1-1.19.27 2 2 0 0 1-1.53-.52 2.48 2.48 0 0 1-.48-1.71v-4.19h1.05v4a2.08 2.08 0 0 0 .29 1.27 1.26 1.26 0 0 0 1 .35 1.49 1.49 0 0 0 1.2-.52 2.17 2.17 0 0 0 .44-1.45v-3.65H715zm4.67-5.1a2.64 2.64 0 0 0-2.11.84 3.56 3.56 0 0 0-.73 2.41 3.66 3.66 0 0 0 .74 2.47 2.66 2.66 0 0 0 2.13.86 3.3 3.3 0 0 0 1.64-.39 2 2 0 0 0 .95-1.11l-.93-.26a1.28 1.28 0 0 1-.61.71 2.09 2.09 0 0 1-1.06.26 1.55 1.55 0 0 1-1.29-.6 2.65 2.65 0 0 1-.47-1.67h4.52v-.14a3.85 3.85 0 0 0-.71-2.53 2.58 2.58 0 0 0-2.08-.83zm-1.72 2.7a2.15 2.15 0 0 1 .49-1.41 1.58 1.58 0 0 1 1.24-.51q1.53 0 1.69 1.92zm11.45 2.4v1.35h-1a1.54 1.54 0 0 1 0-.16v-.93a2.32 2.32 0 0 1-.84.93 2.36 2.36 0 0 1-1.19.27 2 2 0 0 1-1.53-.52 2.48 2.48 0 0 1-.48-1.71v-4.19h1.05v4a2.08 2.08 0 0 0 .29 1.27 1.26 1.26 0 0 0 1 .35 1.49 1.49 0 0 0 1.2-.52 2.17 2.17 0 0 0 .44-1.45v-3.65h1.06zm7.46-1.73a3.85 3.85 0 0 0-.71-2.53 2.58 2.58 0 0 0-2.09-.84 2.64 2.64 0 0 0-2.11.84 3.56 3.56 0 0 0-.73 2.41 3.66 3.66 0 0 0 .74 2.47 2.66 2.66 0 0 0 2.13.86 3.3 3.3 0 0 0 1.64-.39 2 2 0 0 0 .95-1.11l-.93-.26a1.28 1.28 0 0 1-.61.71 2.09 2.09 0 0 1-1.06.26 1.55 1.55 0 0 1-1.29-.6 2.65 2.65 0 0 1-.47-1.67h4.52zm-4.51-.67a2.15 2.15 0 0 1 .49-1.41A1.58 1.58 0 0 1 734 378q1.53 0 1.69 1.92z"/>
  <path fill="#dae8fc" stroke="#6c8ebf" d="M166.5 360.5h88a6 6 0 0 1 6 6v28a6 6 0 0 1-6 6h-88a6 6 0 0 1-6-6v-28a6 6 0 0 1 6-6z"/>
  <path d="M178.32 376.32l-3 7.9h1.15l.8-2.24h3.3l.81 2.24h1.14l-2.94-7.9zm-.74 4.79l.88-2.48.4-1.24.07-.23.34 1 1 2.93zm9-3.36a2 2 0 0 0-2 1.17v-3.4h-1.05v8.7h1v-.96a2.25 2.25 0 0 0 3.66.25 4.27 4.27 0 0 0 .59-2.49q.14-3.26-2.15-3.26zm.85 5.19a1.22 1.22 0 0 1-1.15.61 1.4 1.4 0 0 1-1.27-.59 3.38 3.38 0 0 1-.39-1.82 3.75 3.75 0 0 1 .4-1.94 1.39 1.39 0 0 1 1.27-.64 1.23 1.23 0 0 1 1.13.59 3.79 3.79 0 0 1 .36 1.9 3.89 3.89 0 0 1-.3 1.9zm8.23-1.38a1.43 1.43 0 0 1 .24.84 1.67 1.67 0 0 1-.68 1.42 3.09 3.09 0 0 1-1.89.51 3.62 3.62 0 0 1-1.84-.38 1.8 1.8 0 0 1-.82-1.19l.93-.18a1.1 1.1 0 0 0 .48.74 2.47 2.47 0 0 0 1.25.23q1.58 0 1.58-1a.74.74 0 0 0-.29-.61 2.29 2.29 0 0 0-.88-.38 11.31 11.31 0 0 1-2-.6 1.71 1.71 0 0 1-.64-.54 1.4 1.4 0 0 1-.22-.81 1.62 1.62 0 0 1 .62-1.35 2.87 2.87 0 0 1 1.8-.49 3 3 0 0 1 1.65.39 1.68 1.68 0 0 1 .77 1.13l-.95.12a.87.87 0 0 0-.42-.64 2 2 0 0 0-1-.22q-1.44 0-1.44.88a.71.71 0 0 0 .24.56 1.87 1.87 0 0 0 .78.34l.7.18a6.17 6.17 0 0 1 1.37.49 1.89 1.89 0 0 1 .71.57zm5.45 1.87a8.59 8.59 0 0 0 1.74-.2v.8a7.45 7.45 0 0 1-2 .27 2.16 2.16 0 0 1-1.42-.4 1.57 1.57 0 0 1-.47-1.27v-3.93h-1v-.83h1l.34-1.65h.7v1.65h2.53v.83H200v3.82a.87.87 0 0 0 .25.69 1.21 1.21 0 0 0 .91.23zm9-.11a1.58 1.58 0 0 1-.12-.71v-2.71a2.06 2.06 0 0 0-.59-1.58 2.5 2.5 0 0 0-1.76-.55q-2.21 0-2.48 1.71l1.1.1a1.09 1.09 0 0 1 .36-.76 1.59 1.59 0 0 1 1-.25 1.29 1.29 0 0 1 1 .34 1.61 1.61 0 0 1 .31 1.1v.35h-1.38q-2.66 0-2.66 2.07a2 2 0 0 0 .47 1.38 1.81 1.81 0 0 0 1.39.5A2.45 2.45 0 0 0 208 384a2.55 2.55 0 0 0 .9-1 1.58 1.58 0 0 0 .3 1 1.07 1.07 0 0 0 .85.31 3.54 3.54 0 0 0 .81-.09v-.66a1.69 1.69 0 0 1-.35 0 .48.48 0 0 1-.39-.22zm-1.19-1.72a2 2 0 0 1-.24.93 1.87 1.87 0 0 1-.67.72 1.85 1.85 0 0 1-1 .27 1 1 0 0 1-.76-.29 1.12 1.12 0 0 1-.26-.77 1.32 1.32 0 0 1 .2-.77 1.19 1.19 0 0 1 .57-.43 3.21 3.21 0 0 1 1.05-.15h1.11zm7.62.65l1.11.07a2.14 2.14 0 0 1-.42 1 2.35 2.35 0 0 1-.92.72 3.07 3.07 0 0 1-1.28.26 2.77 2.77 0 0 1-2.19-.84 4.33 4.33 0 0 1 0-4.88 2.77 2.77 0 0 1 2.19-.85 2.87 2.87 0 0 1 1.76.51 2.15 2.15 0 0 1 .86 1.38l-1.12.08a1.35 1.35 0 0 0-.47-.84 1.64 1.64 0 0 0-1.07-.31 1.58 1.58 0 0 0-1.36.57 3.14 3.14 0 0 0-.43 1.86 3.31 3.31 0 0 0 .43 1.9 1.55 1.55 0 0 0 1.35.6 1.71 1.71 0 0 0 1-.31 1.39 1.39 0 0 0 .57-.9zm6.21 1.18a8.59 8.59 0 0 0 1.74-.2v.8a7.45 7.45 0 0 1-2 .27 2.16 2.16 0 0 1-1.42-.4 1.57 1.57 0 0 1-.47-1.27v-3.93h-1v-.83h1l.34-1.65h.7v1.65h2.53v.83h-2.53v3.82a.87.87 0 0 0 .25.69 1.21 1.21 0 0 0 .87.23zm9.48-2.15a2.28 2.28 0 0 1 .11.76 2 2 0 0 1-.79 1.68 3.63 3.63 0 0 1-2.25.6q-2.68 0-3.11-2.1l1.08-.22a1.67 1.67 0 0 0 .68 1.1 2.45 2.45 0 0 0 1.38.34 2.33 2.33 0 0 0 1.42-.36 1.21 1.21 0 0 0 .48-1 1.1 1.1 0 0 0-.19-.67 1.46 1.46 0 0 0-.5-.42 3.28 3.28 0 0 0-.7-.27l-.79-.2a8.18 8.18 0 0 1-1.34-.44 2.22 2.22 0 0 1-.64-.44 1.68 1.68 0 0 1-.36-.57 2.11 2.11 0 0 1-.12-.76 1.85 1.85 0 0 1 .71-1.56 3.29 3.29 0 0 1 2-.55 3.45 3.45 0 0 1 1.9.43 2.34 2.34 0 0 1 .91 1.46l-1.1.19a1.48 1.48 0 0 0-.56-1 2 2 0 0 0-1.15-.3q-1.66 0-1.66 1.25a1 1 0 0 0 .16.57 1.2 1.2 0 0 0 .42.36 2.84 2.84 0 0 0 .62.24l.76.2a11.31 11.31 0 0 1 1.17.34 3.64 3.64 0 0 1 .64.31 2 2 0 0 1 .48.42 1.83 1.83 0 0 1 .35.62zm4.32-3.53a2.64 2.64 0 0 0-2.11.84 3.56 3.56 0 0 0-.73 2.41 3.66 3.66 0 0 0 .74 2.47 2.66 2.66 0 0 0 2.13.86 3.3 3.3 0 0 0 1.64-.39 2 2 0 0 0 .95-1.11l-.93-.26a1.28 1.28 0 0 1-.61.71 2.09 2.09 0 0 1-1.06.26 1.55 1.55 0 0 1-1.29-.6 2.65 2.65 0 0 1-.47-1.67h4.52v-.14a3.85 3.85 0 0 0-.71-2.53 2.58 2.58 0 0 0-2.06-.83zm-1.72 2.7a2.15 2.15 0 0 1 .49-1.41 1.58 1.58 0 0 1 1.24-.51q1.53 0 1.69 1.92zm11.26 2.78v.8a7.45 7.45 0 0 1-2 .27 2.16 2.16 0 0 1-1.42-.4 1.57 1.57 0 0 1-.47-1.27v-3.93h-1v-.83h1l.34-1.65h.7v1.65h2.53v.83h-2.47v3.82a.87.87 0 0 0 .25.69 1.21 1.21 0 0 0 .82.22 8.59 8.59 0 0 0 1.73-.18z"/>
  <path fill="#dae8fc" stroke="#6c8ebf" d="M466.5 360.5h87a6 6 0 0 1 6 6v28a6 6 0 0 1-6 6h-87a6 6 0 0 1-6-6v-28a6 6 0 0 1 6-6z"/>
  <path d="M470.32 377.15l-3 7.9h1.15l.8-2.24h3.3l.81 2.24h1.14l-2.94-7.9zm-.74 4.79l.88-2.48.4-1.24.07-.23.34 1 1 2.93zm9-3.36a2 2 0 0 0-2 1.17v-3.4h-1.05v8.7h1v-.96a2.25 2.25 0 0 0 3.66.25 4.27 4.27 0 0 0 .59-2.49q.14-3.26-2.15-3.26zm.85 5.19a1.22 1.22 0 0 1-1.15.61 1.4 1.4 0 0 1-1.27-.59 3.38 3.38 0 0 1-.39-1.82 3.75 3.75 0 0 1 .4-1.94 1.39 1.39 0 0 1 1.27-.64 1.23 1.23 0 0 1 1.13.59 3.79 3.79 0 0 1 .36 1.9 3.89 3.89 0 0 1-.3 1.9zm8.23-1.38a1.43 1.43 0 0 1 .24.84 1.67 1.67 0 0 1-.68 1.42 3.09 3.09 0 0 1-1.89.51 3.62 3.62 0 0 1-1.84-.38 1.8 1.8 0 0 1-.82-1.19l.93-.18a1.1 1.1 0 0 0 .48.74 2.47 2.47 0 0 0 1.25.23q1.58 0 1.58-1a.74.74 0 0 0-.29-.61 2.29 2.29 0 0 0-.88-.38 11.31 11.31 0 0 1-2-.6 1.71 1.71 0 0 1-.64-.54 1.4 1.4 0 0 1-.22-.81 1.62 1.62 0 0 1 .62-1.35 2.87 2.87 0 0 1 1.8-.49 3 3 0 0 1 1.7.4 1.68 1.68 0 0 1 .77 1.13l-.95.12a.87.87 0 0 0-.42-.64 2 2 0 0 0-1-.22q-1.44 0-1.44.88a.71.71 0 0 0 .24.56 1.87 1.87 0 0 0 .78.34l.7.18a6.17 6.17 0 0 1 1.37.46 1.89 1.89 0 0 1 .66.6zm5.45 1.87a8.59 8.59 0 0 0 1.74-.2v.8a7.45 7.45 0 0 1-2 .27 2.16 2.16 0 0 1-1.42-.4 1.57 1.57 0 0 1-.47-1.27v-3.93h-1v-.83h1l.34-1.65h.7v1.65h2.53v.83H492v3.82a.87.87 0 0 0 .25.69 1.21 1.21 0 0 0 .91.24zm7.9-5.68a7.33 7.33 0 0 1 1.21.1v1a7.44 7.44 0 0 0-1.24-.11 1.87 1.87 0 0 0-1.52.71 2.76 2.76 0 0 0-.58 1.8v3h-1.05v-4.11a8.22 8.22 0 0 0-.08-1 10.29 10.29 0 0 0-.23-1.18h1a7.15 7.15 0 0 1 .28 1.46 3.69 3.69 0 0 1 .57-1 1.81 1.81 0 0 1 .67-.46 2.54 2.54 0 0 1 1.01-.19zm8.27 5.57a1.58 1.58 0 0 1-.12-.71v-2.73a2.06 2.06 0 0 0-.59-1.58 2.5 2.5 0 0 0-1.76-.55q-2.21 0-2.48 1.71l1.1.1a1.09 1.09 0 0 1 .36-.76 1.59 1.59 0 0 1 1-.25 1.29 1.29 0 0 1 1 .34 1.61 1.61 0 0 1 .31 1.1v.35h-1.38q-2.66 0-2.66 2.07a2 2 0 0 0 .47 1.38 1.81 1.81 0 0 0 1.39.5 2.45 2.45 0 0 0 1.28-.31 2.55 2.55 0 0 0 .9-1 1.58 1.58 0 0 0 .3 1 1.07 1.07 0 0 0 .85.31 3.54 3.54 0 0 0 .81-.09v-.66a1.69 1.69 0 0 1-.35 0 .48.48 0 0 1-.39-.2zm-1.19-1.72a2 2 0 0 1-.24.93 1.87 1.87 0 0 1-.67.72 1.85 1.85 0 0 1-1 .27 1 1 0 0 1-.76-.29 1.12 1.12 0 0 1-.26-.77 1.32 1.32 0 0 1 .2-.77 1.19 1.19 0 0 1 .57-.43A3.21 3.21 0 0 1 507 382h1.11zm7.62.65l1.11.07a2.14 2.14 0 0 1-.42 1 2.35 2.35 0 0 1-.92.72 3.07 3.07 0 0 1-1.28.26 2.77 2.77 0 0 1-2.19-.84 4.33 4.33 0 0 1 0-4.88 2.77 2.77 0 0 1 2.19-.85 2.87 2.87 0 0 1 1.76.51 2.15 2.15 0 0 1 .86 1.38l-1.12.08a1.35 1.35 0 0 0-.47-.84 1.64 1.64 0 0 0-1.07-.31 1.58 1.58 0 0 0-1.36.57 3.14 3.14 0 0 0-.43 1.86 3.31 3.31 0 0 0 .43 1.9 1.55 1.55 0 0 0 1.35.6 1.71 1.71 0 0 0 1-.31 1.39 1.39 0 0 0 .6-.9zm6.21 1.18a8.59 8.59 0 0 0 1.74-.2v.8a7.45 7.45 0 0 1-2 .27 2.16 2.16 0 0 1-1.42-.4 1.57 1.57 0 0 1-.47-1.27v-3.93h-1v-.83h1l.34-1.65h.7v1.65h2.53v.83h-2.53v3.82a.87.87 0 0 0 .25.69 1.21 1.21 0 0 0 .94.24zm5.49-.13h3.94v.91h-5.06v-7.9h1.12zm9.06-6.66h-1.17v-1.12h1.17zm0 6.74h2.23v.83H533v-.83h2.47v-4.68h-1.87v-.83h2.92zm8.81-1.82a1.43 1.43 0 0 1 .24.84 1.67 1.67 0 0 1-.68 1.42 3.09 3.09 0 0 1-1.89.51 3.62 3.62 0 0 1-1.84-.38 1.8 1.8 0 0 1-.82-1.19l.93-.18a1.1 1.1 0 0 0 .48.74 2.47 2.47 0 0 0 1.25.23q1.58 0 1.58-1a.74.74 0 0 0-.29-.61 2.29 2.29 0 0 0-.88-.38 11.31 11.31 0 0 1-2-.6 1.71 1.71 0 0 1-.64-.54 1.4 1.4 0 0 1-.22-.81 1.62 1.62 0 0 1 .62-1.35 2.87 2.87 0 0 1 1.8-.49 3 3 0 0 1 1.65.39 1.68 1.68 0 0 1 .77 1.13l-.95.12a.87.87 0 0 0-.42-.64 2 2 0 0 0-1-.22q-1.44 0-1.44.88a.71.71 0 0 0 .24.56 1.87 1.87 0 0 0 .78.34l.7.18a6.17 6.17 0 0 1 1.37.46 1.89 1.89 0 0 1 .7.61zm7.19 1.67v.8a7.45 7.45 0 0 1-2 .27 2.16 2.16 0 0 1-1.42-.4 1.57 1.57 0 0 1-.47-1.27v-3.93h-1v-.83h1l.34-1.65h.7v1.65h2.53v.83h-2.45v3.82a.87.87 0 0 0 .25.69 1.21 1.21 0 0 0 .82.22 8.59 8.59 0 0 0 1.73-.18z"/>
  <path fill="#dae8fc" stroke="#6c8ebf" d="M536.5 240.5h128a6 6 0 0 1 6 6v28a6 6 0 0 1-6 6h-128a6 6 0 0 1-6-6v-28a6 6 0 0 1 6-6z"/>
  <path d="M543.24 257l-3 7.9h1.15l.8-2.24h3.3l.81 2.24h1.14l-2.94-7.9zm-.74 4.79l.88-2.48.4-1.24.07-.23.34 1 1 2.93zm9-3.36a2 2 0 0 0-2 1.17v-3.4h-1.05v8.7h1v-.96a2.25 2.25 0 0 0 3.66.25 4.27 4.27 0 0 0 .59-2.49q.14-3.28-2.15-3.28zm.85 5.19a1.22 1.22 0 0 1-1.15.61 1.4 1.4 0 0 1-1.27-.59 3.38 3.38 0 0 1-.39-1.82 3.75 3.75 0 0 1 .4-1.94 1.39 1.39 0 0 1 1.27-.64 1.23 1.23 0 0 1 1.13.59 3.79 3.79 0 0 1 .36 1.9 3.89 3.89 0 0 1-.31 1.89zm8.23-1.38a1.43 1.43 0 0 1 .24.84 1.67 1.67 0 0 1-.68 1.42 3.09 3.09 0 0 1-1.89.51 3.62 3.62 0 0 1-1.84-.38 1.8 1.8 0 0 1-.82-1.19l.93-.18a1.1 1.1 0 0 0 .48.74 2.47 2.47 0 0 0 1.25.23q1.58 0 1.58-1a.74.74 0 0 0-.29-.61 2.29 2.29 0 0 0-.88-.38 11.31 11.31 0 0 1-2-.6 1.71 1.71 0 0 1-.64-.54 1.4 1.4 0 0 1-.22-.81 1.62 1.62 0 0 1 .62-1.35 2.87 2.87 0 0 1 1.8-.49 3 3 0 0 1 1.65.39 1.68 1.68 0 0 1 .77 1.13l-.95.12a.87.87 0 0 0-.42-.64 2 2 0 0 0-1-.22q-1.44 0-1.44.88a.71.71 0 0 0 .24.56 1.87 1.87 0 0 0 .78.34l.7.18a6.17 6.17 0 0 1 1.37.46 1.89 1.89 0 0 1 .7.59zm5.45 1.87a8.59 8.59 0 0 0 1.74-.2v.8a7.45 7.45 0 0 1-2 .27 2.16 2.16 0 0 1-1.42-.4 1.57 1.57 0 0 1-.47-1.27v-3.93h-1v-.83h1l.34-1.65h.7v1.65h2.53v.83H565v3.82a.87.87 0 0 0 .25.69 1.21 1.21 0 0 0 .82.22zm9-.11a1.58 1.58 0 0 1-.12-.71v-2.73a2.06 2.06 0 0 0-.59-1.58 2.5 2.5 0 0 0-1.76-.55q-2.21 0-2.48 1.71l1.1.1a1.09 1.09 0 0 1 .36-.76 1.59 1.59 0 0 1 1-.25 1.29 1.29 0 0 1 1 .34 1.61 1.61 0 0 1 .31 1.1v.33h-1.38q-2.66 0-2.66 2.07a2 2 0 0 0 .47 1.38 1.81 1.81 0 0 0 1.39.5 2.45 2.45 0 0 0 1.28-.31 2.55 2.55 0 0 0 .9-1 1.58 1.58 0 0 0 .3 1 1.07 1.07 0 0 0 .85.31 3.54 3.54 0 0 0 .81-.09v-.66a1.69 1.69 0 0 1-.35 0 .48.48 0 0 1-.46-.2zm-1.19-1.72a2 2 0 0 1-.24.93 1.87 1.87 0 0 1-.67.72 1.85 1.85 0 0 1-1 .27 1 1 0 0 1-.76-.29 1.12 1.12 0 0 1-.26-.77 1.32 1.32 0 0 1 .2-.77 1.19 1.19 0 0 1 .57-.43 3.21 3.21 0 0 1 1.05-.15h1.11zm7.62.65l1.11.07a2.14 2.14 0 0 1-.42 1 2.35 2.35 0 0 1-.92.72 3.07 3.07 0 0 1-1.23.28 2.77 2.77 0 0 1-2.19-.84 4.33 4.33 0 0 1 0-4.88 2.77 2.77 0 0 1 2.19-.85 2.87 2.87 0 0 1 1.76.51 2.15 2.15 0 0 1 .86 1.38l-1.12.08a1.35 1.35 0 0 0-.47-.84 1.64 1.64 0 0 0-1.07-.31 1.58 1.58 0 0 0-1.36.57 3.14 3.14 0 0 0-.43 1.86 3.31 3.31 0 0 0 .43 1.9 1.55 1.55 0 0 0 1.35.6 1.71 1.71 0 0 0 1-.31 1.39 1.39 0 0 0 .52-.94zm6.21 1.18a8.59 8.59 0 0 0 1.74-.2v.8a7.45 7.45 0 0 1-2 .27 2.16 2.16 0 0 1-1.42-.4 1.57 1.57 0 0 1-.47-1.27v-3.93h-1v-.83h1l.34-1.65h.7v1.65h2.53v.83h-2.53v3.82a.87.87 0 0 0 .25.69 1.21 1.21 0 0 0 .87.22zm8.74-1.66l.93.38a3 3 0 0 1-2.83 2.18 2.83 2.83 0 0 1-2.37-1.06 4.86 4.86 0 0 1-.83-3q0-4 3.14-4a2.73 2.73 0 0 1 2.73 2l-1 .38a2.22 2.22 0 0 0-.68-1 1.61 1.61 0 0 0-1.06-.38 1.64 1.64 0 0 0-1.49.76 4.5 4.5 0 0 0-.48 2.37 4.59 4.59 0 0 0 .5 2.4 1.68 1.68 0 0 0 1.53.8 1.63 1.63 0 0 0 1.07-.4 3.05 3.05 0 0 0 .85-1.43zm5-4a2.68 2.68 0 0 0-2.1.82 3.57 3.57 0 0 0-.74 2.46 3.67 3.67 0 0 0 .72 2.44 2.58 2.58 0 0 0 2.08.86 2.66 2.66 0 0 0 2.12-.85 3.62 3.62 0 0 0 .74-2.45 3.72 3.72 0 0 0-.7-2.47 2.65 2.65 0 0 0-2.07-.83zm1.3 5.17a1.5 1.5 0 0 1-1.35.63 1.41 1.41 0 0 1-1.27-.64 4.36 4.36 0 0 1 0-3.74 1.48 1.48 0 0 1 1.33-.63 1.43 1.43 0 0 1 1.3.62 3.52 3.52 0 0 1 .4 1.88 3.45 3.45 0 0 1-.36 1.86zm6.61.46h2.23v.83h-5.75v-.83h2.47v-7h-1.69v-.83h2.75zm7.2 0h2.23v.83H613v-.83h2.47v-7h-1.69v-.83h2.75zm6.5-5.62a2.64 2.64 0 0 0-2.11.84 3.56 3.56 0 0 0-.73 2.41 3.66 3.66 0 0 0 .74 2.47 2.66 2.66 0 0 0 2.13.86 3.3 3.3 0 0 0 1.64-.39 2 2 0 0 0 .95-1.11l-.93-.26a1.28 1.28 0 0 1-.61.71 2.09 2.09 0 0 1-1.06.26 1.55 1.55 0 0 1-1.29-.6 2.65 2.65 0 0 1-.47-1.67h4.52v-.14a3.85 3.85 0 0 0-.71-2.53 2.58 2.58 0 0 0-2.01-.88zm-1.72 2.7a2.15 2.15 0 0 1 .49-1.41 1.58 1.58 0 0 1 1.24-.51q1.53 0 1.69 1.92zm10.52 1.8l1.18.04a2.14 2.14 0 0 1-.42 1 2.35 2.35 0 0 1-.92.72 3.07 3.07 0 0 1-1.28.26 2.77 2.77 0 0 1-2.19-.84 4.33 4.33 0 0 1 0-4.88 2.77 2.77 0 0 1 2.19-.85 2.87 2.87 0 0 1 1.76.51 2.15 2.15 0 0 1 .86 1.38l-1.12.08a1.35 1.35 0 0 0-.47-.84 1.64 1.64 0 0 0-1.07-.31 1.58 1.58 0 0 0-1.36.57 3.14 3.14 0 0 0-.43 1.86 3.31 3.31 0 0 0 .43 1.9 1.55 1.55 0 0 0 1.35.6 1.71 1.71 0 0 0 1-.31 1.39 1.39 0 0 0 .55-.92zm6.21 1.18a8.59 8.59 0 0 0 1.74-.2v.8a7.45 7.45 0 0 1-2 .27 2.16 2.16 0 0 1-1.42-.4 1.57 1.57 0 0 1-.47-1.27v-3.93h-1v-.83h1l.34-1.65h.7v1.65h2.53v.83H637v3.82a.87.87 0 0 0 .25.69 1.21 1.21 0 0 0 .83.19zm7.35-6.79h-1.17v-1.12h1.17zm0 6.74h2.23v.83h-5.71v-.83h2.47v-4.68h-1.87v-.83h2.92zm6.44-5.62a2.68 2.68 0 0 0-2.1.82 3.57 3.57 0 0 0-.74 2.46 3.67 3.67 0 0 0 .72 2.44 2.58 2.58 0 0 0 2.08.86 2.66 2.66 0 0 0 2.12-.85 3.62 3.62 0 0 0 .74-2.45 3.72 3.72 0 0 0-.7-2.47 2.65 2.65 0 0 0-2.07-.85zm1.3 5.17a1.5 1.5 0 0 1-1.35.63 1.41 1.41 0 0 1-1.27-.64 4.36 4.36 0 0 1 0-3.74 1.48 1.48 0 0 1 1.33-.63 1.43 1.43 0 0 1 1.3.62 3.52 3.52 0 0 1 .4 1.88 3.45 3.45 0 0 1-.36 1.84zm8.44-2.94v4.22h-1.06v-4.07a1.89 1.89 0 0 0-.31-1.18 1.18 1.18 0 0 0-1-.39 1.52 1.52 0 0 0-1.19.53 2.1 2.1 0 0 0-.47 1.44v3.67h-1.05v-6.35h1a1.54 1.54 0 0 1 0 .16v.93a2.11 2.11 0 0 1 2-1.2 1.94 1.94 0 0 1 1.51.55 2.44 2.44 0 0 1 .63 1.66z"/>
  <path fill="#fff2cc" stroke="#d6b656" d="M380.5 50.5c33.14 0 60 9 60 20s-26.86 20-60 20-60-9-60-20 26.86-20 60-20z"/>
  <path d="M354.43 66.49h4.82v.91h-1.85v6.08h1.85v.91h-4.82v-.91h1.85V67.4h-1.85zm9.42 6.9a.87.87 0 0 1-.25-.69v-3.82h2.53v-.83h-2.53V66.4h-.7l-.34 1.65h-1v.83h1v3.93a1.57 1.57 0 0 0 .47 1.27 2.16 2.16 0 0 0 1.42.4 7.45 7.45 0 0 0 2-.27v-.8a8.59 8.59 0 0 1-1.74.2 1.21 1.21 0 0 1-.86-.22zm9.5-4.62a3.85 3.85 0 0 1 .71 2.53v.14h-4.52a2.65 2.65 0 0 0 .47 1.67 1.55 1.55 0 0 0 1.29.6 2.09 2.09 0 0 0 1.06-.26 1.28 1.28 0 0 0 .61-.71l.93.26a2 2 0 0 1-.95 1.11 3.3 3.3 0 0 1-1.64.39 2.66 2.66 0 0 1-2.13-.86 3.66 3.66 0 0 1-.74-2.47 3.56 3.56 0 0 1 .73-2.41 2.64 2.64 0 0 1 2.11-.84 2.58 2.58 0 0 1 2.07.85zm-.35 1.86q-.16-1.92-1.69-1.92a1.58 1.58 0 0 0-1.24.51 2.15 2.15 0 0 0-.49 1.41zm5.85-2.55a1.81 1.81 0 0 0-.67.46 3.69 3.69 0 0 0-.57 1 7.15 7.15 0 0 0-.28-1.46h-1a10.29 10.29 0 0 1 .23 1.18 8.22 8.22 0 0 1 .08 1v4.11h1.05v-3a2.76 2.76 0 0 1 .58-1.8 1.87 1.87 0 0 1 1.52-.71A7.44 7.44 0 0 1 381 69v-1a7.33 7.33 0 0 0-1.21-.1 2.54 2.54 0 0 0-.96.19zm9.68 5.65a1.69 1.69 0 0 0 .35 0v.66a3.54 3.54 0 0 1-.81.09 1.07 1.07 0 0 1-.85-.31 1.58 1.58 0 0 1-.3-1 2.55 2.55 0 0 1-.9 1 2.45 2.45 0 0 1-1.28.31 1.81 1.81 0 0 1-1.39-.5 2 2 0 0 1-.47-1.38q0-2 2.66-2.07h1.38v-.35a1.61 1.61 0 0 0-.31-1.1 1.29 1.29 0 0 0-1-.34 1.59 1.59 0 0 0-1 .25 1.09 1.09 0 0 0-.36.76l-1.1-.1q.27-1.71 2.48-1.71a2.5 2.5 0 0 1 1.76.55 2.06 2.06 0 0 1 .59 1.58v2.73a1.58 1.58 0 0 0 .12.71.48.48 0 0 0 .41.23zm-1.66-2.48h-1.11a3.21 3.21 0 0 0-1.05.15 1.19 1.19 0 0 0-.57.43 1.32 1.32 0 0 0-.2.77 1.12 1.12 0 0 0 .26.77 1 1 0 0 0 .76.29 1.85 1.85 0 0 0 1-.27 1.87 1.87 0 0 0 .67-.72 2 2 0 0 0 .24-.93zm8.79-.07a4.27 4.27 0 0 1-.59 2.49 2.25 2.25 0 0 1-3.66-.25v.97h-1v-8.7h1.05v3.4a2 2 0 0 1 2-1.17q2.18 0 2.18 3.27zm-1.09 0a3.79 3.79 0 0 0-.36-1.9 1.23 1.23 0 0 0-1.13-.59 1.39 1.39 0 0 0-1.27.64 3.75 3.75 0 0 0-.4 1.94 3.38 3.38 0 0 0 .39 1.82 1.4 1.4 0 0 0 1.27.59 1.22 1.22 0 0 0 1.15-.61 3.89 3.89 0 0 0 .33-1.84zm6.22-5.53H398v.83h1.69v7h-2.47v.83H403v-.83h-2.23zm9.3 5.75h-4.52a2.65 2.65 0 0 0 .47 1.67 1.55 1.55 0 0 0 1.29.6 2.09 2.09 0 0 0 1.06-.26 1.28 1.28 0 0 0 .61-.71l.93.26a2 2 0 0 1-.95 1.11 3.3 3.3 0 0 1-1.64.39 2.66 2.66 0 0 1-2.13-.86 3.66 3.66 0 0 1-.74-2.47 3.56 3.56 0 0 1 .73-2.41 2.64 2.64 0 0 1 2.11-.84 2.58 2.58 0 0 1 2.09.84 3.85 3.85 0 0 1 .71 2.53zm-1.09-.77q-.16-1.92-1.69-1.92a1.58 1.58 0 0 0-1.24.51 2.15 2.15 0 0 0-.49 1.41z"/>
  <path fill="#fff2cc" stroke="#d6b656" d="M380.5 130.5c33.14 0 60 9 60 20s-26.86 20-60 20-60-9-60-20 26.86-20 60-20z"/>
  <path d="M352.87 152.45l.93.38A3 3 0 0 1 351 155a2.83 2.83 0 0 1-2.37-1.06 4.86 4.86 0 0 1-.83-3q0-4 3.14-4a2.73 2.73 0 0 1 2.73 2l-1 .38a2.22 2.22 0 0 0-.68-1 1.61 1.61 0 0 0-1.06-.38 1.64 1.64 0 0 0-1.49.76 4.5 4.5 0 0 0-.48 2.37 4.59 4.59 0 0 0 .5 2.4 1.68 1.68 0 0 0 1.53.8 1.63 1.63 0 0 0 1.07-.4 3.05 3.05 0 0 0 .81-1.42zm7.17-3.2a3.72 3.72 0 0 1 .7 2.47 3.62 3.62 0 0 1-.74 2.45 2.66 2.66 0 0 1-2.12.85 2.58 2.58 0 0 1-2.08-.86 3.67 3.67 0 0 1-.72-2.44 3.57 3.57 0 0 1 .74-2.46 2.68 2.68 0 0 1 2.1-.82 2.65 2.65 0 0 1 2.08.81zm-.41 2.47a3.52 3.52 0 0 0-.4-1.88 1.43 1.43 0 0 0-1.3-.62 1.48 1.48 0 0 0-1.33.63 4.36 4.36 0 0 0 0 3.74 1.41 1.41 0 0 0 1.27.64 1.5 1.5 0 0 0 1.35-.63 3.45 3.45 0 0 0 .41-1.89zm6.19-5.52h-2.75v.8h1.69v7h-2.46v.83h5.75V154h-2.23zm7.2 0h-2.75v.8H372v7h-2.5v.83h5.75V154H373zm8.59 3.08a3.85 3.85 0 0 1 .71 2.53v.14h-4.52a2.65 2.65 0 0 0 .47 1.67 1.55 1.55 0 0 0 1.29.6 2.09 2.09 0 0 0 1.06-.26 1.28 1.28 0 0 0 .61-.71l.93.26a2 2 0 0 1-.95 1.11 3.3 3.3 0 0 1-1.64.39 2.66 2.66 0 0 1-2.13-.86 3.66 3.66 0 0 1-.74-2.47 3.56 3.56 0 0 1 .73-2.41 2.64 2.64 0 0 1 2.11-.84 2.58 2.58 0 0 1 2.08.84zm-.38 1.86q-.16-1.92-1.69-1.92a1.58 1.58 0 0 0-1.24.51 2.15 2.15 0 0 0-.49 1.41zm6.58 2.75a1.71 1.71 0 0 1-1 .31 1.55 1.55 0 0 1-1.35-.6 3.31 3.31 0 0 1-.43-1.9 3.14 3.14 0 0 1 .43-1.86 1.58 1.58 0 0 1 1.36-.57 1.64 1.64 0 0 1 1.07.31 1.35 1.35 0 0 1 .47.84l1.13-.08a2.15 2.15 0 0 0-.86-1.38 2.87 2.87 0 0 0-1.76-.51 2.77 2.77 0 0 0-2.19.85 4.33 4.33 0 0 0 0 4.88 2.77 2.77 0 0 0 2.19.84 3.07 3.07 0 0 0 1.28-.26 2.35 2.35 0 0 0 .85-.76 2.14 2.14 0 0 0 .42-1l-1.11-.07a1.39 1.39 0 0 1-.49.95zm5.9 0a.87.87 0 0 1-.25-.69v-3.82H396v-.83h-2.53v-1.65h-.7l-.34 1.65h-1v.83h1v3.93a1.57 1.57 0 0 0 .47 1.27 2.16 2.16 0 0 0 1.42.4 7.45 7.45 0 0 0 2-.27v-.8a8.59 8.59 0 0 1-1.74.2 1.21 1.21 0 0 1-.86-.22zm8.17-7.69h-1.17v1.13h1.17zm0 2.36H399v.83h1.87v4.68h-2.47v.83h5.75v-.83h-2.23zm8.57.7a3.72 3.72 0 0 1 .7 2.47 3.62 3.62 0 0 1-.74 2.45 2.66 2.66 0 0 1-2.12.85 2.58 2.58 0 0 1-2.08-.86 3.67 3.67 0 0 1-.72-2.44 3.57 3.57 0 0 1 .74-2.46 2.68 2.68 0 0 1 2.1-.82 2.65 2.65 0 0 1 2.12.8zm-.41 2.47a3.52 3.52 0 0 0-.4-1.88 1.43 1.43 0 0 0-1.3-.62 1.48 1.48 0 0 0-1.33.63 4.36 4.36 0 0 0 0 3.74 1.41 1.41 0 0 0 1.27.64 1.5 1.5 0 0 0 1.35-.63 3.45 3.45 0 0 0 .37-1.9zm7.53-2.73a1.94 1.94 0 0 0-1.51-.55 2.11 2.11 0 0 0-2 1.2v-.93a1.54 1.54 0 0 0 0-.16h-1v6.35h1.05v-3.67a2.1 2.1 0 0 1 .47-1.44 1.52 1.52 0 0 1 1.19-.53 1.18 1.18 0 0 1 1 .39 1.89 1.89 0 0 1 .31 1.18v4.07h1.06v-4.22a2.44 2.44 0 0 0-.57-1.69z"/>
  <path fill="#fff2cc" stroke="#d6b656" d="M200.5 240.5c21.82 0 39.5 9 39.5 20s-17.68 20-39.5 20-39.5-9-39.5-20 17.68-20 39.5-20z"/>
  <path d="M188.51 263.59h3.94v.91h-5.06v-7.9h1.12zm9.06-7.78h-1.17v1.12h1.17zm0 2.36h-2.92v.83h1.87v4.68H194v.83h5.75v-.83h-2.23zm8.15 3.12a6.17 6.17 0 0 0-1.37-.46l-.7-.18a1.87 1.87 0 0 1-.78-.34.71.71 0 0 1-.24-.56q0-.88 1.44-.88a2 2 0 0 1 1 .22.87.87 0 0 1 .42.64l.95-.12a1.68 1.68 0 0 0-.77-1.13 3 3 0 0 0-1.65-.39 2.87 2.87 0 0 0-1.8.49 1.62 1.62 0 0 0-.62 1.35 1.4 1.4 0 0 0 .22.81 1.71 1.71 0 0 0 .64.54 11.31 11.31 0 0 0 2 .6 2.29 2.29 0 0 1 .88.38.74.74 0 0 1 .29.61q0 1-1.58 1a2.47 2.47 0 0 1-1.25-.23 1.1 1.1 0 0 1-.48-.74l-.93.18a1.8 1.8 0 0 0 .82 1.19 3.62 3.62 0 0 0 1.84.38 3.09 3.09 0 0 0 1.89-.51 1.67 1.67 0 0 0 .68-1.42 1.43 1.43 0 0 0-.24-.84 1.89 1.89 0 0 0-.67-.6zm6.11 2.44a1.21 1.21 0 0 1-.82-.22.87.87 0 0 1-.25-.69V259h2.53v-.83h-2.53v-1.65h-.7l-.34 1.65h-1v.83h1v3.93a1.57 1.57 0 0 0 .47 1.27 2.16 2.16 0 0 0 1.42.4 7.45 7.45 0 0 0 2-.27v-.8a8.59 8.59 0 0 1-1.79.2z"/>
  <path fill="#fff2cc" stroke="#d6b656" d="M80.5 240.5c22.09 0 40 9 40 20s-17.91 20-40 20-40-9-40-20 17.91-20 40-20z"/>
  <path d="M76 262.46a2.28 2.28 0 0 1 .11.76 2 2 0 0 1-.79 1.68 3.63 3.63 0 0 1-2.25.6q-2.68 0-3.11-2.1l1.08-.22a1.67 1.67 0 0 0 .68 1.1 2.45 2.45 0 0 0 1.38.34 2.33 2.33 0 0 0 1.42-.36 1.21 1.21 0 0 0 .48-1 1.1 1.1 0 0 0-.19-.67 1.46 1.46 0 0 0-.5-.42 3.28 3.28 0 0 0-.7-.27l-.79-.2a8.18 8.18 0 0 1-1.34-.44 2.22 2.22 0 0 1-.64-.44 1.68 1.68 0 0 1-.36-.57 2.11 2.11 0 0 1-.12-.76 1.85 1.85 0 0 1 .71-1.56 3.29 3.29 0 0 1 2-.55 3.45 3.45 0 0 1 1.9.43 2.34 2.34 0 0 1 .91 1.46l-1.1.19a1.48 1.48 0 0 0-.56-1 2 2 0 0 0-1.15-.3q-1.66 0-1.66 1.25a1 1 0 0 0 .16.57 1.2 1.2 0 0 0 .42.36 2.84 2.84 0 0 0 .62.24l.76.2a11.31 11.31 0 0 1 1.17.34 3.64 3.64 0 0 1 .64.31 2 2 0 0 1 .48.42 1.83 1.83 0 0 1 .34.61zm6.41-2.69a3.85 3.85 0 0 1 .71 2.53v.14h-4.53a2.65 2.65 0 0 0 .47 1.67 1.55 1.55 0 0 0 1.29.6 2.09 2.09 0 0 0 1.06-.26 1.28 1.28 0 0 0 .61-.71l.93.26a2 2 0 0 1-.95 1.11 3.3 3.3 0 0 1-1.64.39 2.66 2.66 0 0 1-2.13-.86 3.66 3.66 0 0 1-.74-2.47 3.56 3.56 0 0 1 .73-2.41 2.64 2.64 0 0 1 2.11-.84 2.58 2.58 0 0 1 2.07.85zm-.41 1.86q-.16-1.92-1.69-1.92a1.58 1.58 0 0 0-1.24.51 2.15 2.15 0 0 0-.49 1.41zm6.1 3a1.21 1.21 0 0 1-.82-.22.87.87 0 0 1-.25-.69v-3.82h2.53v-.83h-2.51v-1.67h-.7l-.35 1.65h-1v.83h1v3.93a1.57 1.57 0 0 0 .47 1.27 2.16 2.16 0 0 0 1.42.4 7.45 7.45 0 0 0 2-.27v-.8a8.59 8.59 0 0 1-1.77.2z"/>
  <path fill="#fff2cc" stroke="#d6b656" d="M320.5 240.5c21.82 0 39.5 9 39.5 20s-17.68 20-39.5 20-39.5-9-39.5-20 17.68-20 39.5-20z"/>
  <path d="M307.25 264.74a2.32 2.32 0 0 1-.63-1.07 2.51 2.51 0 0 0 1.65-1.29 5.56 5.56 0 0 0 .58-2.73 4.94 4.94 0 0 0-.77-3 2.95 2.95 0 0 0-4.46 0 5 5 0 0 0-.76 3 5.34 5.34 0 0 0 .67 2.92 2.51 2.51 0 0 0 2 1.17 3.61 3.61 0 0 0 .94 1.68 2.13 2.13 0 0 0 1.45.5 4.53 4.53 0 0 0 1-.13V265a3.18 3.18 0 0 1-.67.08 1.47 1.47 0 0 1-1-.34zm-1.41-1.89a1.48 1.48 0 0 1-1.36-.81 4.91 4.91 0 0 1-.46-2.39q0-3.12 1.83-3.12t1.82 3.12a5.21 5.21 0 0 1-.43 2.38 1.46 1.46 0 0 1-1.39.82zm9.75-.56v1.35h-1a1.54 1.54 0 0 1 0-.16v-.93a2.32 2.32 0 0 1-.84.93 2.36 2.36 0 0 1-1.19.27 2 2 0 0 1-1.53-.52 2.48 2.48 0 0 1-.48-1.71v-4.22h1.05v4a2.08 2.08 0 0 0 .29 1.27 1.26 1.26 0 0 0 1 .35 1.49 1.49 0 0 0 1.2-.52 2.17 2.17 0 0 0 .44-1.45v-3.65h1.06zm4.67-5.1a2.64 2.64 0 0 0-2.11.84 3.56 3.56 0 0 0-.73 2.41 3.66 3.66 0 0 0 .74 2.47 2.66 2.66 0 0 0 2.13.86 3.3 3.3 0 0 0 1.64-.39 2 2 0 0 0 .95-1.11L322 262a1.28 1.28 0 0 1-.61.71 2.09 2.09 0 0 1-1.06.26 1.55 1.55 0 0 1-1.29-.6 2.65 2.65 0 0 1-.47-1.67h4.52v-.14a3.85 3.85 0 0 0-.71-2.53 2.58 2.58 0 0 0-2.11-.85zm-1.72 2.7a2.15 2.15 0 0 1 .49-1.41 1.58 1.58 0 0 1 1.24-.51q1.53 0 1.69 1.92zm11.45 2.4v1.35h-1a1.54 1.54 0 0 1 0-.16v-.93a2.32 2.32 0 0 1-.84.93 2.36 2.36 0 0 1-1.19.27 2 2 0 0 1-1.53-.52 2.48 2.48 0 0 1-.48-1.71v-4.22H326v4a2.08 2.08 0 0 0 .29 1.27 1.26 1.26 0 0 0 1 .35 1.49 1.49 0 0 0 1.2-.52 2.17 2.17 0 0 0 .44-1.45v-3.65H330zm7.46-1.73a3.85 3.85 0 0 0-.71-2.53 2.58 2.58 0 0 0-2.09-.84 2.64 2.64 0 0 0-2.11.84 3.56 3.56 0 0 0-.73 2.41 3.66 3.66 0 0 0 .74 2.47 2.66 2.66 0 0 0 2.13.86 3.3 3.3 0 0 0 1.64-.39 2 2 0 0 0 .95-1.11l-.93-.26a1.28 1.28 0 0 1-.61.71 2.09 2.09 0 0 1-1.06.26 1.55 1.55 0 0 1-1.29-.6 2.65 2.65 0 0 1-.47-1.67h4.52zm-4.51-.67a2.15 2.15 0 0 1 .49-1.41 1.58 1.58 0 0 1 1.24-.51q1.53 0 1.69 1.92z"/>
  <path fill="#fff2cc" stroke="#d6b656" d="M80.5 360.5c22.09 0 40 9 40 20s-17.91 20-40 20-40-9-40-20 17.91-20 40-20z"/>
  <path d="M54.5 381a2.28 2.28 0 0 1 .11.76 2 2 0 0 1-.79 1.68 3.63 3.63 0 0 1-2.25.6q-2.68 0-3.11-2.1l1.08-.22a1.67 1.67 0 0 0 .68 1.1 2.45 2.45 0 0 0 1.38.34 2.33 2.33 0 0 0 1.42-.36 1.21 1.21 0 0 0 .48-1 1.1 1.1 0 0 0-.19-.67 1.46 1.46 0 0 0-.5-.42 3.28 3.28 0 0 0-.7-.27l-.79-.2a8.18 8.18 0 0 1-1.34-.44 2.22 2.22 0 0 1-.64-.44 1.68 1.68 0 0 1-.36-.57 2.11 2.11 0 0 1-.12-.76 1.85 1.85 0 0 1 .71-1.56 3.29 3.29 0 0 1 2-.55 3.45 3.45 0 0 1 1.9.43 2.34 2.34 0 0 1 .91 1.46l-1.1.19a1.48 1.48 0 0 0-.56-1 2 2 0 0 0-1.15-.3q-1.66 0-1.66 1.25a1 1 0 0 0 .16.57 1.2 1.2 0 0 0 .42.36 2.84 2.84 0 0 0 .62.24l.76.2a11.31 11.31 0 0 1 1.17.34 3.64 3.64 0 0 1 .64.31 2 2 0 0 1 .48.42 1.83 1.83 0 0 1 .34.61zm6.44-2.71a3.72 3.72 0 0 1 .7 2.47 3.62 3.62 0 0 1-.74 2.45 2.66 2.66 0 0 1-2.12.85 2.58 2.58 0 0 1-2.08-.86 3.67 3.67 0 0 1-.72-2.44 3.57 3.57 0 0 1 .74-2.46 2.68 2.68 0 0 1 2.1-.82 2.65 2.65 0 0 1 2.11.77zm-.41 2.47a3.52 3.52 0 0 0-.4-1.88 1.43 1.43 0 0 0-1.3-.62 1.48 1.48 0 0 0-1.33.63 4.36 4.36 0 0 0 0 3.74 1.41 1.41 0 0 0 1.27.64 1.5 1.5 0 0 0 1.35-.63 3.45 3.45 0 0 0 .4-1.93zm5.85-3.13a1.81 1.81 0 0 0-.67.46 3.69 3.69 0 0 0-.57 1 7.15 7.15 0 0 0-.28-1.46h-1a10.29 10.29 0 0 1 .23 1.18 8.22 8.22 0 0 1 .08 1v4.11h1.05v-3a2.76 2.76 0 0 1 .58-1.8 1.87 1.87 0 0 1 1.52-.71 7.44 7.44 0 0 1 1.24.11v-1a7.33 7.33 0 0 0-1.21-.1 2.54 2.54 0 0 0-.97.17zm6.63 5.3a.87.87 0 0 1-.25-.69v-3.82h2.53v-.83h-2.53v-1.69h-.7l-.34 1.65h-1v.83h1v3.93a1.57 1.57 0 0 0 .47 1.27 2.16 2.16 0 0 0 1.42.4 7.45 7.45 0 0 0 2-.27v-.8a8.59 8.59 0 0 1-1.74.2 1.21 1.21 0 0 1-.87-.22zm9.5-4.62a3.85 3.85 0 0 1 .71 2.53v.14h-4.53a2.65 2.65 0 0 0 .47 1.67 1.55 1.55 0 0 0 1.29.6 2.09 2.09 0 0 0 1.06-.26 1.28 1.28 0 0 0 .61-.71l.93.26a2 2 0 0 1-.95 1.11 3.3 3.3 0 0 1-1.64.39 2.66 2.66 0 0 1-2.13-.86 3.66 3.66 0 0 1-.74-2.47 3.56 3.56 0 0 1 .73-2.41 2.64 2.64 0 0 1 2.11-.84 2.58 2.58 0 0 1 2.08.81zm-.38 1.86q-.16-1.92-1.69-1.92a1.58 1.58 0 0 0-1.24.51 2.15 2.15 0 0 0-.49 1.41zm8 2.45v1.31h-1a2.83 2.83 0 0 1 0-.43v-.59a2 2 0 0 1-.76.89 2.31 2.31 0 0 1-1.18.28 2 2 0 0 1-1.74-.81 4.38 4.38 0 0 1-.56-2.46q0-3.32 2.3-3.32a2.52 2.52 0 0 1 1.19.25 1.81 1.81 0 0 1 .76.83v-3.34h1.05zm-1.05-1.94a3.3 3.3 0 0 0-.4-1.83 1.43 1.43 0 0 0-1.27-.57 1.22 1.22 0 0 0-1.14.6 5.31 5.31 0 0 0 0 3.79 1.21 1.21 0 0 0 1.13.59 1.41 1.41 0 0 0 1.27-.62 3.64 3.64 0 0 0 .39-2zm8.33-.25a2 2 0 0 0-.48-.42 3.64 3.64 0 0 0-.64-.31 11.31 11.31 0 0 0-1.17-.34l-.76-.2a2.84 2.84 0 0 1-.62-.24 1.2 1.2 0 0 1-.42-.36 1 1 0 0 1-.16-.57q0-1.25 1.66-1.25A2 2 0 0 1 96 377a1.48 1.48 0 0 1 .56 1l1.1-.19a2.34 2.34 0 0 0-.91-1.46 3.45 3.45 0 0 0-1.9-.43 3.29 3.29 0 0 0-2 .55 1.85 1.85 0 0 0-.71 1.56 2.11 2.11 0 0 0 .12.76 1.68 1.68 0 0 0 .36.57 2.22 2.22 0 0 0 .64.44 8.18 8.18 0 0 0 1.34.44l.79.2a3.28 3.28 0 0 1 .7.27 1.46 1.46 0 0 1 .5.42 1.1 1.1 0 0 1 .19.67 1.21 1.21 0 0 1-.48 1 2.33 2.33 0 0 1-1.42.36 2.45 2.45 0 0 1-1.38-.34 1.67 1.67 0 0 1-.68-1.1l-1.08.22q.43 2.1 3.11 2.1a3.63 3.63 0 0 0 2.25-.6 2 2 0 0 0 .79-1.68 2.28 2.28 0 0 0-.11-.76 1.83 1.83 0 0 0-.39-.6zm6.72-2.13a3.85 3.85 0 0 1 .71 2.53v.14h-4.52a2.65 2.65 0 0 0 .47 1.67 1.55 1.55 0 0 0 1.29.6 2.09 2.09 0 0 0 1.06-.26 1.28 1.28 0 0 0 .61-.71l.93.26a2 2 0 0 1-.95 1.11 3.3 3.3 0 0 1-1.64.39 2.66 2.66 0 0 1-2.13-.86 3.66 3.66 0 0 1-.74-2.47 3.56 3.56 0 0 1 .73-2.41 2.64 2.64 0 0 1 2.11-.84 2.58 2.58 0 0 1 2.05.82zm-.38 1.86q-.16-1.92-1.69-1.92a1.58 1.58 0 0 0-1.24.51 2.15 2.15 0 0 0-.49 1.41zm6.1 3a1.21 1.21 0 0 1-.82-.22.87.87 0 0 1-.25-.69v-3.82h2.53v-.83h-2.53v-1.7h-.7l-.34 1.65h-1v.83h1v3.93a1.57 1.57 0 0 0 .47 1.27 2.16 2.16 0 0 0 1.42.4 7.45 7.45 0 0 0 2-.27v-.8a8.59 8.59 0 0 1-1.8.2z"/>
  <path fill="#fff2cc" stroke="#d6b656" d="M80.5 440.5c33.14 0 60 9 60 20s-26.86 20-60 20-60-9-60-20 26.86-20 60-20z"/>
  <path d="M43.5 455.88h1v7.9h-1.34l-3-6.62q.09 1 .09 1.49v5.13h-1v-7.9h1.3l3.09 6.67a13 13 0 0 1-.11-1.61zm8.41 7.25a1.69 1.69 0 0 0 .35 0v.66a3.54 3.54 0 0 1-.81.09 1.07 1.07 0 0 1-.85-.31 1.58 1.58 0 0 1-.3-1 2.55 2.55 0 0 1-.9 1 2.45 2.45 0 0 1-1.28.31 1.81 1.81 0 0 1-1.39-.5 2 2 0 0 1-.47-1.38q0-2 2.66-2.07h1.38v-.35a1.61 1.61 0 0 0-.31-1.1 1.29 1.29 0 0 0-1-.34 1.59 1.59 0 0 0-1 .25 1.09 1.09 0 0 0-.36.76l-1.1-.1q.27-1.71 2.48-1.71a2.5 2.5 0 0 1 1.76.55 2.06 2.06 0 0 1 .59 1.58v2.73a1.58 1.58 0 0 0 .12.71.48.48 0 0 0 .43.22zm-1.66-2.48h-1.11a3.21 3.21 0 0 0-1.05.15 1.19 1.19 0 0 0-.57.43 1.32 1.32 0 0 0-.2.77 1.12 1.12 0 0 0 .26.77 1 1 0 0 0 .76.29 1.85 1.85 0 0 0 1-.27 1.87 1.87 0 0 0 .67-.72 2 2 0 0 0 .24-.93zm6.4.93l-.23.69-.21.69-.3-1.08-.1-.31-1.57-4.12h-1.18l2.54 6.34h1.25l2.6-6.34h-1.18zm7.57-6.49h-1.17v1.13h1.17zm0 2.36H61.3v.83h1.87V463H60.7v.83h5.75V463h-2.22zm8 0h1v6.15a2.85 2.85 0 0 1-.62 2 2.49 2.49 0 0 1-1.92.67 2.78 2.78 0 0 1-1.58-.4 1.8 1.8 0 0 1-.76-1.16l1.08-.15a1.1 1.1 0 0 0 .43.68 1.46 1.46 0 0 0 .87.24q1.45 0 1.45-1.85v-1.14a2.08 2.08 0 0 1-.8.91 2.29 2.29 0 0 1-1.21.31 1.93 1.93 0 0 1-1.7-.76 4.19 4.19 0 0 1-.54-2.39 4.15 4.15 0 0 1 .57-2.44 2 2 0 0 1 1.77-.78 2.12 2.12 0 0 1 1.15.31 2 2 0 0 1 .75.88v-.59a3.19 3.19 0 0 1 .08-.5zm-.08 3.11a3.13 3.13 0 0 0-.44-1.78 1.38 1.38 0 0 0-1.21-.65 1.27 1.27 0 0 0-1.16.56 3.62 3.62 0 0 0-.36 1.87 5.19 5.19 0 0 0 .15 1.4 1.37 1.37 0 0 0 .47.75 1.46 1.46 0 0 0 .88.23 1.44 1.44 0 0 0 .88-.28 1.76 1.76 0 0 0 .58-.81 3.6 3.6 0 0 0 .22-1.3zm8.56 2.58a1.69 1.69 0 0 0 .35 0v.66a3.54 3.54 0 0 1-.81.09 1.07 1.07 0 0 1-.85-.31 1.58 1.58 0 0 1-.3-1 2.55 2.55 0 0 1-.9 1 2.45 2.45 0 0 1-1.28.31 1.81 1.81 0 0 1-1.39-.5A2 2 0 0 1 75 462q0-2 2.66-2.07h1.38v-.35a1.61 1.61 0 0 0-.31-1.1 1.29 1.29 0 0 0-1-.34 1.59 1.59 0 0 0-1 .25 1.09 1.09 0 0 0-.36.76l-1.1-.1q.27-1.71 2.48-1.71a2.5 2.5 0 0 1 1.76.55 2.06 2.06 0 0 1 .59 1.58v2.73a1.58 1.58 0 0 0 .12.71.48.48 0 0 0 .49.22zm-1.66-2.48h-1.11a3.21 3.21 0 0 0-1.05.15 1.19 1.19 0 0 0-.57.43 1.32 1.32 0 0 0-.2.77 1.12 1.12 0 0 0 .26.77 1 1 0 0 0 .76.29 1.85 1.85 0 0 0 1-.27 1.87 1.87 0 0 0 .67-.72 2 2 0 0 0 .24-.93zm8.79-.07a4.27 4.27 0 0 1-.59 2.49 2.25 2.25 0 0 1-3.66-.25v.97h-1v-8.7h1.02v3.4a2 2 0 0 1 2-1.17q2.25-.02 2.25 3.25zm-1.09 0a3.79 3.79 0 0 0-.36-1.9 1.23 1.23 0 0 0-1.13-.59 1.39 1.39 0 0 0-1.27.64 3.75 3.75 0 0 0-.4 1.94 3.38 3.38 0 0 0 .39 1.82 1.4 1.4 0 0 0 1.27.59 1.22 1.22 0 0 0 1.15-.61 3.89 3.89 0 0 0 .37-1.86zm6.26-5.5h-2.77v.83h1.69v7h-2.47v.83h5.75V463H93zm8.59 3.08a3.85 3.85 0 0 1 .71 2.53v.14h-4.55a2.65 2.65 0 0 0 .47 1.67 1.55 1.55 0 0 0 1.29.6 2.09 2.09 0 0 0 1.06-.26 1.28 1.28 0 0 0 .61-.71l.93.26a2 2 0 0 1-.95 1.11 3.3 3.3 0 0 1-1.64.39 2.66 2.66 0 0 1-2.13-.86 3.66 3.66 0 0 1-.74-2.47 3.56 3.56 0 0 1 .73-2.41 2.64 2.64 0 0 1 2.11-.84 2.58 2.58 0 0 1 2.08.84zm-.38 1.86q-.16-1.92-1.69-1.92a1.58 1.58 0 0 0-1.24.51 2.15 2.15 0 0 0-.49 1.41zm8.06.26a2 2 0 0 0-.48-.42 3.64 3.64 0 0 0-.64-.31 11.31 11.31 0 0 0-1.17-.34l-.76-.2a2.84 2.84 0 0 1-.62-.24 1.2 1.2 0 0 1-.42-.36 1 1 0 0 1-.16-.57q0-1.25 1.66-1.25a2 2 0 0 1 1.15.3 1.48 1.48 0 0 1 .56 1l1.1-.19a2.34 2.34 0 0 0-.91-1.46 3.45 3.45 0 0 0-1.9-.43 3.29 3.29 0 0 0-2 .55 1.85 1.85 0 0 0-.71 1.56 2.11 2.11 0 0 0 .12.76 1.68 1.68 0 0 0 .36.57 2.22 2.22 0 0 0 .64.44 8.18 8.18 0 0 0 1.34.44l.79.2a3.28 3.28 0 0 1 .7.27 1.46 1.46 0 0 1 .5.42 1.1 1.1 0 0 1 .19.67 1.21 1.21 0 0 1-.48 1 2.33 2.33 0 0 1-1.42.36 2.45 2.45 0 0 1-1.38-.34 1.67 1.67 0 0 1-.68-1.1l-1.08.22q.43 2.1 3.11 2.1a3.63 3.63 0 0 0 2.25-.6 2 2 0 0 0 .79-1.68 2.28 2.28 0 0 0-.11-.76 1.83 1.83 0 0 0-.36-.61zm6.72-2.13a3.85 3.85 0 0 1 .71 2.53v.14h-4.52a2.65 2.65 0 0 0 .47 1.67 1.55 1.55 0 0 0 1.29.6 2.09 2.09 0 0 0 1.06-.26 1.28 1.28 0 0 0 .61-.71l.93.26a2 2 0 0 1-.95 1.11 3.3 3.3 0 0 1-1.64.39 2.66 2.66 0 0 1-2.13-.86 3.66 3.66 0 0 1-.74-2.47 3.56 3.56 0 0 1 .73-2.41 2.64 2.64 0 0 1 2.11-.84 2.58 2.58 0 0 1 2.08.85zm-.38 1.86q-.16-1.92-1.69-1.92a1.58 1.58 0 0 0-1.24.51 2.15 2.15 0 0 0-.49 1.41zm6.1 3a1.21 1.21 0 0 1-.82-.22.87.87 0 0 1-.25-.69v-3.82h2.53v-.83h-2.53v-1.65h-.7l-.34 1.65h-1v.83h1v3.93a1.57 1.57 0 0 0 .47 1.27 2.16 2.16 0 0 0 1.42.4 7.45 7.45 0 0 0 2-.27v-.8a8.59 8.59 0 0 1-1.8.18z"/>
  <path fill="#fff2cc" stroke="#d6b656" d="M330.5 360.5c27.61 0 50 9 50 20s-22.39 20-50 20-50-9-50-20 22.39-20 50-20z"/>
  <text transform="translate(314 383.22)" font-size="12" font-family="LiberationMono, Liberation Mono">
    Deque
  </text>
  <path fill="none" stroke="#000" d="M639.52 9.5H779.5v141.63H639.52z"/>
  <path fill="#e1d5e7" stroke="#9673a6" d="M654.49 111.56h105.19v24.39H654.49z"/>
  <path d="M696.95 124.36l.77.32a2.45 2.45 0 0 1-2.34 1.81 2.35 2.35 0 0 1-2-.88 4 4 0 0 1-.69-2.52q0-3.34 2.6-3.34a2.26 2.26 0 0 1 2.26 1.63l-.82.32a1.84 1.84 0 0 0-.56-.87 1.33 1.33 0 0 0-.88-.32 1.36 1.36 0 0 0-1.23.63 3.73 3.73 0 0 0-.4 2 3.8 3.8 0 0 0 .42 2 1.4 1.4 0 0 0 1.27.66 1.35 1.35 0 0 0 .89-.33 2.52 2.52 0 0 0 .71-1.11zm4.77-5.18h-2.28v.69h1.4v5.82h-2v.69h4.77v-.69h-1.84zm7.74 6.66a1.38 1.38 0 0 0 .29 0v.54a2.94 2.94 0 0 1-.67.08.89.89 0 0 1-.71-.25 1.31 1.31 0 0 1-.25-.8 2.11 2.11 0 0 1-.75.84 2 2 0 0 1-1.06.26 1.5 1.5 0 0 1-1.15-.42 1.62 1.62 0 0 1-.39-1.15q0-1.69 2.2-1.72h1.15v-.29a1.33 1.33 0 0 0-.26-.92 1.07 1.07 0 0 0-.82-.28 1.32 1.32 0 0 0-.83.2.9.9 0 0 0-.3.63l-.91-.08q.18-1.48 2-1.48a2.07 2.07 0 0 1 1.46.45 1.71 1.71 0 0 1 .49 1.31v2.26a1.3 1.3 0 0 0 .1.58.4.4 0 0 0 .4.24zm-1.37-2.05h-.92a2.67 2.67 0 0 0-.87.13 1 1 0 0 0-.47.36 1.1 1.1 0 0 0-.17.64.92.92 0 0 0 .22.64.8.8 0 0 0 .63.24 1.52 1.52 0 0 0 1.38-.82 1.62 1.62 0 0 0 .2-.77zm6.39-.08a5.12 5.12 0 0 0-1.14-.38l-.58-.15a1.55 1.55 0 0 1-.65-.28.59.59 0 0 1-.2-.47q0-.73 1.19-.73a1.69 1.69 0 0 1 .87.18.72.72 0 0 1 .34.53l.79-.1a1.4 1.4 0 0 0-.64-.94 2.53 2.53 0 0 0-1.36-.32 2.38 2.38 0 0 0-1.49.4 1.34 1.34 0 0 0-.51 1.12 1.17 1.17 0 0 0 .18.67 1.42 1.42 0 0 0 .53.45 9.37 9.37 0 0 0 1.63.5 1.89 1.89 0 0 1 .73.31.61.61 0 0 1 .24.5q0 .83-1.31.83a2 2 0 0 1-1-.19.91.91 0 0 1-.4-.61l-.77.15a1.49 1.49 0 0 0 .68 1 3 3 0 0 0 1.52.31 2.55 2.55 0 0 0 1.57-.42 1.38 1.38 0 0 0 .57-1.17 1.18 1.18 0 0 0-.2-.7 1.57 1.57 0 0 0-.6-.49zm6.51.47a1.57 1.57 0 0 0-.55-.47 5.12 5.12 0 0 0-1.14-.38l-.58-.15a1.55 1.55 0 0 1-.65-.28.59.59 0 0 1-.2-.47q0-.73 1.19-.73a1.69 1.69 0 0 1 .87.18.72.72 0 0 1 .34.53l.79-.1a1.4 1.4 0 0 0-.64-.94 2.53 2.53 0 0 0-1.36-.32 2.38 2.38 0 0 0-1.49.4 1.34 1.34 0 0 0-.51 1.12 1.17 1.17 0 0 0 .18.67 1.42 1.42 0 0 0 .53.45 9.37 9.37 0 0 0 1.63.5 1.89 1.89 0 0 1 .73.31.61.61 0 0 1 .24.5q0 .83-1.31.83a2 2 0 0 1-1-.19.91.91 0 0 1-.4-.61l-.77.15a1.49 1.49 0 0 0 .68 1 3 3 0 0 0 1.52.31 2.55 2.55 0 0 0 1.57-.42 1.38 1.38 0 0 0 .57-1.17 1.18 1.18 0 0 0-.23-.71z"/>
  <rect width="105.19" height="25.68" x="653.57" y="66.49" fill="#dae8fc" stroke="#6c8ebf" rx="3.85" ry="3.85"/>
  <path d="M667.3 76.33l-2.48 6.55h1l.66-1.85h2.73l.67 1.85h.94l-2.43-6.55zm-.61 4l.73-2.05.33-1 .06-.19.28.84.84 2.43zm7.49-2.78a1.62 1.62 0 0 0-1.62 1v-2.88h-.87v7.2h.84v-.8a1.86 1.86 0 0 0 3 .21 3.53 3.53 0 0 0 .49-2.06q.06-2.7-1.84-2.7zm.7 4.3a1 1 0 0 1-.95.51 1.16 1.16 0 0 1-1.05-.49 2.8 2.8 0 0 1-.32-1.5 3.11 3.11 0 0 1 .33-1.61 1.15 1.15 0 0 1 1.05-.53 1 1 0 0 1 .93.49 3.14 3.14 0 0 1 .3 1.57 3.22 3.22 0 0 1-.29 1.53zm6.82-1.14a1.18 1.18 0 0 1 .2.7 1.38 1.38 0 0 1-.57 1.17 2.56 2.56 0 0 1-1.57.42 3 3 0 0 1-1.52-.31 1.49 1.49 0 0 1-.68-1l.77-.15a.91.91 0 0 0 .4.61 2 2 0 0 0 1 .19q1.31 0 1.31-.83a.61.61 0 0 0-.24-.5 1.9 1.9 0 0 0-.73-.31 9.37 9.37 0 0 1-1.63-.5 1.42 1.42 0 0 1-.53-.45 1.16 1.16 0 0 1-.18-.67 1.34 1.34 0 0 1 .51-1.12 2.38 2.38 0 0 1 1.49-.4 2.52 2.52 0 0 1 1.36.32 1.39 1.39 0 0 1 .64.94l-.79.1a.72.72 0 0 0-.34-.53 1.68 1.68 0 0 0-.87-.18q-1.19 0-1.19.73a.59.59 0 0 0 .2.47 1.55 1.55 0 0 0 .65.28l.58.15a5.11 5.11 0 0 1 1.14.38 1.57 1.57 0 0 1 .58.46zm4.51 1.55a7.11 7.11 0 0 0 1.44-.17v.66A6.17 6.17 0 0 1 686 83a1.79 1.79 0 0 1-1.18-.33 1.3 1.3 0 0 1-.39-1.05v-3.31h-.82v-.69h.83l.28-1.37h.58v1.37h2.1v.69h-2.1v3.16a.72.72 0 0 0 .21.57 1 1 0 0 0 .7.19zm6.54-4.7a6.07 6.07 0 0 1 1 .08v.81a6.16 6.16 0 0 0-1-.09 1.55 1.55 0 0 0-1.26.59 2.28 2.28 0 0 0-.48 1.49v2.47h-.87v-3.4a6.81 6.81 0 0 0-.07-.87 8.53 8.53 0 0 0-.19-1h.83a5.92 5.92 0 0 1 .23 1.21 3.06 3.06 0 0 1 .48-.8 1.5 1.5 0 0 1 .55-.38 2.1 2.1 0 0 1 .78-.14zm6.85 4.61a1.31 1.31 0 0 1-.1-.58v-2.3A1.71 1.71 0 0 0 699 78a2.07 2.07 0 0 0-1.46-.45q-1.83 0-2.05 1.42l.91.08a.9.9 0 0 1 .3-.63 1.32 1.32 0 0 1 .83-.2 1.07 1.07 0 0 1 .82.28 1.33 1.33 0 0 1 .26.91v.29h-1.15q-2.2 0-2.2 1.72a1.62 1.62 0 0 0 .39 1.15 1.5 1.5 0 0 0 1.16.42 2 2 0 0 0 1.06-.26 2.11 2.11 0 0 0 .74-.84 1.31 1.31 0 0 0 .25.8.89.89 0 0 0 .71.25 2.94 2.94 0 0 0 .67-.08v-.56h-.29a.4.4 0 0 1-.35-.16zm-1-1.42a1.62 1.62 0 0 1-.2.77 1.55 1.55 0 0 1-.56.6 1.53 1.53 0 0 1-.83.22.8.8 0 0 1-.63-.24.93.93 0 0 1-.22-.64 1.1 1.1 0 0 1 .17-.64 1 1 0 0 1 .47-.36 2.66 2.66 0 0 1 .87-.13h.92zm6.31.54l.92.06a1.77 1.77 0 0 1-.35.85 2 2 0 0 1-.76.6 2.54 2.54 0 0 1-1.06.22 2.3 2.3 0 0 1-1.81-.7 3.59 3.59 0 0 1 0-4 2.3 2.3 0 0 1 1.81-.7 2.38 2.38 0 0 1 1.46.42 1.78 1.78 0 0 1 .71 1.14l-.93.07a1.12 1.12 0 0 0-.39-.7 1.36 1.36 0 0 0-.88-.25 1.31 1.31 0 0 0-1.12.48 2.6 2.6 0 0 0-.36 1.54 2.74 2.74 0 0 0 .36 1.57 1.28 1.28 0 0 0 1.12.5 1.41 1.41 0 0 0 .87-.26 1.15 1.15 0 0 0 .43-.87zm5.14 1a7.11 7.11 0 0 0 1.44-.17v.66a6.17 6.17 0 0 1-1.63.22 1.79 1.79 0 0 1-1.18-.33 1.3 1.3 0 0 1-.39-1.05v-3.31h-.82v-.69h.83l.28-1.37h.58v1.37h2.1v.69h-2.1v3.16a.72.72 0 0 0 .21.57 1 1 0 0 0 .7.19zm13.21-1.38l.77.32A2.45 2.45 0 0 1 721.7 83a2.34 2.34 0 0 1-2-.88 4 4 0 0 1-.69-2.52q0-3.34 2.6-3.34a2.26 2.26 0 0 1 2.26 1.63l-.82.32a1.84 1.84 0 0 0-.56-.87 1.33 1.33 0 0 0-.88-.32 1.36 1.36 0 0 0-1.23.63 3.73 3.73 0 0 0-.4 2 3.8 3.8 0 0 0 .41 2 1.39 1.39 0 0 0 1.27.66 1.35 1.35 0 0 0 .89-.33 2.53 2.53 0 0 0 .72-1.13zm4.74 1.28h1.84v.69h-4.77v-.69h2v-5.83h-1.4v-.69H728zm7.35 0a1.31 1.31 0 0 1-.1-.58v-2.32a1.71 1.71 0 0 0-.45-1.29 2.07 2.07 0 0 0-1.46-.45q-1.83 0-2.05 1.42l.91.08a.9.9 0 0 1 .3-.63 1.32 1.32 0 0 1 .83-.2 1.07 1.07 0 0 1 .82.28 1.33 1.33 0 0 1 .26.91v.29h-1.15q-2.2 0-2.2 1.72a1.62 1.62 0 0 0 .39 1.15 1.5 1.5 0 0 0 1.16.42 2 2 0 0 0 1.06-.26 2.11 2.11 0 0 0 .74-.84 1.31 1.31 0 0 0 .25.8.89.89 0 0 0 .71.25 2.94 2.94 0 0 0 .67-.08v-.56h-.29a.4.4 0 0 1-.36-.16zm-1-1.42a1.62 1.62 0 0 1-.2.77 1.55 1.55 0 0 1-.56.6 1.53 1.53 0 0 1-.83.22.8.8 0 0 1-.63-.24.93.93 0 0 1-.22-.64 1.1 1.1 0 0 1 .17-.64 1 1 0 0 1 .47-.36 2.66 2.66 0 0 1 .87-.13h.92zm6.94 0a1.18 1.18 0 0 1 .2.7 1.38 1.38 0 0 1-.57 1.17 2.56 2.56 0 0 1-1.57.42 3 3 0 0 1-1.52-.31 1.49 1.49 0 0 1-.68-1l.77-.15a.91.91 0 0 0 .4.61 2 2 0 0 0 1 .19q1.31 0 1.31-.83a.61.61 0 0 0-.24-.5 1.9 1.9 0 0 0-.73-.31 9.37 9.37 0 0 1-1.63-.5 1.42 1.42 0 0 1-.53-.45 1.16 1.16 0 0 1-.18-.67 1.34 1.34 0 0 1 .51-1.12 2.38 2.38 0 0 1 1.49-.4 2.52 2.52 0 0 1 1.36.32 1.39 1.39 0 0 1 .64.94l-.79.1a.72.72 0 0 0-.34-.53 1.68 1.68 0 0 0-.87-.18q-1.19 0-1.19.73a.59.59 0 0 0 .2.47 1.55 1.55 0 0 0 .65.28l.58.15a5.11 5.11 0 0 1 1.14.38 1.57 1.57 0 0 1 .64.4zm6.16.7a1.38 1.38 0 0 1-.57 1.17 2.56 2.56 0 0 1-1.57.42 3 3 0 0 1-1.52-.31 1.49 1.49 0 0 1-.68-1l.77-.15a.91.91 0 0 0 .4.61 2 2 0 0 0 1 .19q1.31 0 1.31-.83a.61.61 0 0 0-.24-.5 1.9 1.9 0 0 0-.73-.31 9.37 9.37 0 0 1-1.63-.5 1.42 1.42 0 0 1-.53-.45 1.16 1.16 0 0 1-.18-.67 1.34 1.34 0 0 1 .51-1.12 2.38 2.38 0 0 1 1.49-.4 2.52 2.52 0 0 1 1.36.32 1.39 1.39 0 0 1 .64.94l-.79.1a.72.72 0 0 0-.34-.53 1.68 1.68 0 0 0-.87-.18q-1.19 0-1.19.73a.59.59 0 0 0 .2.47 1.55 1.55 0 0 0 .65.28l.58.15a5.11 5.11 0 0 1 1.14.38 1.57 1.57 0 0 1 .55.47 1.18 1.18 0 0 1 .29.63z"/>
  <ellipse cx="706.79" cy="37.63" fill="#fff2cc" stroke="#d6b656" rx="52.6" ry="12.42"/>
  <path d="M680.77 34.64h4v.76h-1.53v5h1.53v.76h-4v-.76h1.53v-5h-1.53zm8.41 1.2a1.75 1.75 0 0 0-1.68 1v-.77a1.28 1.28 0 0 0 0-.13h-.83v5.25h.87v-3a1.74 1.74 0 0 1 .39-1.19 1.26 1.26 0 0 1 1-.44 1 1 0 0 1 .81.32 1.56 1.56 0 0 1 .25 1v3.37h.88v-3.5a2 2 0 0 0-.41-1.4 1.61 1.61 0 0 0-1.28-.51zm5.36 4.52a.72.72 0 0 1-.21-.57v-3.17h2.1v-.69h-2.1v-1.36h-.58l-.28 1.37h-.83v.69h.82v3.26a1.3 1.3 0 0 0 .39 1.05 1.79 1.79 0 0 0 1.18.33 6.17 6.17 0 0 0 1.63-.22v-.66a7.11 7.11 0 0 1-1.44.17 1 1 0 0 1-.68-.2zm7.87-3.82a3.18 3.18 0 0 1 .59 2.1v.12h-3.75a2.19 2.19 0 0 0 .39 1.38 1.28 1.28 0 0 0 1.07.5 1.73 1.73 0 0 0 .88-.22 1.06 1.06 0 0 0 .5-.59l.77.22a1.67 1.67 0 0 1-.78.92 2.74 2.74 0 0 1-1.36.32 2.2 2.2 0 0 1-1.76-.71 3 3 0 0 1-.62-2 3 3 0 0 1 .6-2 2.18 2.18 0 0 1 1.74-.7 2.14 2.14 0 0 1 1.72.65zm-.32 1.54q-.14-1.59-1.4-1.59a1.31 1.31 0 0 0-1 .42 1.78 1.78 0 0 0-.4 1.17zm4.85-2.08a1.5 1.5 0 0 0-.55.38 3.06 3.06 0 0 0-.48.8 5.92 5.92 0 0 0-.23-1.21h-.83a8.53 8.53 0 0 1 .19 1 6.81 6.81 0 0 1 .07.87v3.4h.87v-2.52a2.28 2.28 0 0 1 .48-1.49 1.55 1.55 0 0 1 1.26-.59 6.16 6.16 0 0 1 1 .09v-.81a6.07 6.07 0 0 0-1-.08 2.1 2.1 0 0 0-.78.16zm6.64-2a2.33 2.33 0 0 0-1.56.42 1.82 1.82 0 0 0-.47 1.41v.12h-1.27v.69h1.27v4.56h.87v-4.58h2.38v-.69h-2.38a1.69 1.69 0 0 1 .12-.7.72.72 0 0 1 .38-.36 2 2 0 0 1 .76-.11h.67l.59.05v-.7a6 6 0 0 0-.61-.07zm7.34 6.66h.29v.54a2.94 2.94 0 0 1-.67.08.89.89 0 0 1-.71-.25 1.31 1.31 0 0 1-.25-.8 2.11 2.11 0 0 1-.74.84 2 2 0 0 1-1.06.26 1.5 1.5 0 0 1-1.16-.42 1.62 1.62 0 0 1-.39-1.15q0-1.69 2.2-1.72h1.15v-.34a1.33 1.33 0 0 0-.26-.91 1.07 1.07 0 0 0-.82-.28 1.32 1.32 0 0 0-.83.2.9.9 0 0 0-.3.63l-.91-.08q.22-1.42 2.05-1.42a2.07 2.07 0 0 1 1.46.45 1.71 1.71 0 0 1 .49 1.31v2.26a1.31 1.31 0 0 0 .1.58.4.4 0 0 0 .36.21zm-1.37-2.05h-.92a2.66 2.66 0 0 0-.87.13 1 1 0 0 0-.47.36 1.1 1.1 0 0 0-.17.64.93.93 0 0 0 .22.64.8.8 0 0 0 .63.24 1.53 1.53 0 0 0 .83-.22 1.55 1.55 0 0 0 .56-.6 1.62 1.62 0 0 0 .2-.77zm5.89 1.76a1.41 1.41 0 0 1-.87.26 1.28 1.28 0 0 1-1.12-.5 2.74 2.74 0 0 1-.36-1.57 2.6 2.6 0 0 1 .36-1.54 1.31 1.31 0 0 1 1.12-.48 1.36 1.36 0 0 1 .88.25 1.12 1.12 0 0 1 .39.7l.93-.07a1.78 1.78 0 0 0-.71-1.14 2.38 2.38 0 0 0-1.46-.42 2.3 2.3 0 0 0-1.81.7 2.93 2.93 0 0 0-.63 2 3 3 0 0 0 .62 2 2.3 2.3 0 0 0 1.81.7 2.54 2.54 0 0 0 1.06-.22 2 2 0 0 0 .76-.6 1.77 1.77 0 0 0 .35-.85l-.92-.06a1.15 1.15 0 0 1-.41.82zm7.38-1.61h-3.75a2.19 2.19 0 0 0 .39 1.38 1.28 1.28 0 0 0 1.07.5 1.73 1.73 0 0 0 .88-.22 1.06 1.06 0 0 0 .5-.59l.77.22a1.67 1.67 0 0 1-.78.92 2.74 2.74 0 0 1-1.36.32 2.2 2.2 0 0 1-1.76-.71 3 3 0 0 1-.62-2 3 3 0 0 1 .6-2 2.18 2.18 0 0 1 1.74-.7 2.14 2.14 0 0 1 1.73.69 3.18 3.18 0 0 1 .59 2.1zm-.9-.67q-.14-1.59-1.4-1.59a1.31 1.31 0 0 0-1 .42 1.78 1.78 0 0 0-.4 1.17zM58 63l1.86.76q-1.75 4.36-5.66 4.36A5.66 5.66 0 0 1 49.46 66a9.72 9.72 0 0 1-1.66-6.09q0-8.07 6.28-8.07a5.45 5.45 0 0 1 5.46 3.93l-2 .76a4.45 4.45 0 0 0-1.35-2.09 3.22 3.22 0 0 0-2.13-.77 3.28 3.28 0 0 0-3 1.51 9 9 0 0 0-1 4.73 9.18 9.18 0 0 0 1 4.8 3.37 3.37 0 0 0 3.06 1.6 3.26 3.26 0 0 0 2.14-.8A6.1 6.1 0 0 0 58 63zm14.34-6.4a7.44 7.44 0 0 1 1.39 4.93 7.25 7.25 0 0 1-1.47 4.89A5.32 5.32 0 0 1 68 68.13a5.15 5.15 0 0 1-4.17-1.71 7.34 7.34 0 0 1-1.45-4.87 7.14 7.14 0 0 1 1.48-4.92A5.36 5.36 0 0 1 68.09 55a5.29 5.29 0 0 1 4.25 1.61zm-.82 4.93a7 7 0 0 0-.8-3.76 2.86 2.86 0 0 0-2.6-1.24 3 3 0 0 0-2.66 1.27 6.77 6.77 0 0 0-.84 3.74 6.84 6.84 0 0 0 .84 3.74A2.83 2.83 0 0 0 68 66.57a3 3 0 0 0 2.7-1.25 6.89 6.89 0 0 0 .82-3.78zm12.39-11h-5.5v1.66h3.39v14.04h-4.95v1.66h11.51v-1.66h-4.45zm14.4 0h-5.5v1.66h3.39v14.04h-4.94v1.66h11.51v-1.66h-4.46zm17.18 6.15a7.69 7.69 0 0 1 1.42 5.06V62h-9a5.3 5.3 0 0 0 .94 3.34 3.1 3.1 0 0 0 2.58 1.21 4.17 4.17 0 0 0 2.07-.55 2.56 2.56 0 0 0 1.21-1.42l1.85.53a4 4 0 0 1-1.89 2.23 6.61 6.61 0 0 1-3.29.77 5.32 5.32 0 0 1-4.25-1.72 7.33 7.33 0 0 1-1.49-4.93 7.12 7.12 0 0 1 1.46-4.81 5.28 5.28 0 0 1 4.22-1.65 5.16 5.16 0 0 1 4.17 1.65zm-.76 3.73q-.33-3.84-3.39-3.84a3.16 3.16 0 0 0-2.48 1 4.31 4.31 0 0 0-1 2.82zm13.16 5.5a3.41 3.41 0 0 1-2.1.62 3.1 3.1 0 0 1-2.7-1.2 6.61 6.61 0 0 1-.86-3.8 6.27 6.27 0 0 1 .86-3.71 3.17 3.17 0 0 1 2.71-1.15 3.28 3.28 0 0 1 2.13.62 2.69 2.69 0 0 1 .94 1.68l2.25-.16a4.31 4.31 0 0 0-1.71-2.81 5.74 5.74 0 0 0-3.52-1 5.54 5.54 0 0 0-4.37 1.7 7.08 7.08 0 0 0-1.52 4.84 7.15 7.15 0 0 0 1.5 4.9 5.54 5.54 0 0 0 4.37 1.69 6.14 6.14 0 0 0 2.57-.52 4.71 4.71 0 0 0 1.85-1.44 4.29 4.29 0 0 0 .85-2l-2.22-.17a2.78 2.78 0 0 1-1.03 1.88zm11.81 0a1.75 1.75 0 0 1-.5-1.37v-7.66h5.06v-1.67h-5.06v-3.3h-1.41l-.68 3.3h-2v1.66h2v7.86a3.14 3.14 0 0 0 .95 2.54 4.32 4.32 0 0 0 2.85.8 14.9 14.9 0 0 0 3.93-.54v-1.6a17.17 17.17 0 0 1-3.48.4 2.43 2.43 0 0 1-1.66-.44zM156 50.5h-2.34v2.25H156zm0 4.71h-5.85v1.66h3.74v9.35H149v1.66h11.51v-1.65H156zm17.13 1.39a7.44 7.44 0 0 1 1.39 4.93 7.25 7.25 0 0 1-1.47 4.89 5.32 5.32 0 0 1-4.25 1.69 5.15 5.15 0 0 1-4.17-1.71 7.34 7.34 0 0 1-1.45-4.87 7.14 7.14 0 0 1 1.48-4.92A5.36 5.36 0 0 1 168.9 55a5.29 5.29 0 0 1 4.26 1.61zm-.82 4.93a7 7 0 0 0-.8-3.76 2.86 2.86 0 0 0-2.6-1.24 3 3 0 0 0-2.66 1.27 6.77 6.77 0 0 0-.84 3.74 6.84 6.84 0 0 0 .84 3.74 2.83 2.83 0 0 0 2.53 1.28 3 3 0 0 0 2.7-1.25 6.89 6.89 0 0 0 .86-3.77zm12-6.56a4.22 4.22 0 0 0-4.05 2.4v-1.85a3.09 3.09 0 0 0 0-.32h-2q.07.49.07 2.71v10h2.11v-7.37a4.21 4.21 0 0 1 .93-2.88 3 3 0 0 1 2.38-1.06 2.36 2.36 0 0 1 2 .77 3.77 3.77 0 0 1 .62 2.37v8.14h2.12v-8.44a4.88 4.88 0 0 0-1-3.37 3.89 3.89 0 0 0-3.12-1.07zm18.07 7.61a3.79 3.79 0 0 0-1.32-1.14 12.35 12.35 0 0 0-2.75-.93l-1.31-.35a3.74 3.74 0 0 1-1.56-.68 1.41 1.41 0 0 1-.49-1.12q0-1.77 2.87-1.77a4.06 4.06 0 0 1 2.1.43 1.74 1.74 0 0 1 .83 1.28l1.9-.23a3.37 3.37 0 0 0-1.54-2.27 6.1 6.1 0 0 0-3.31-.8 5.74 5.74 0 0 0-3.6 1 3.23 3.23 0 0 0-1.24 2.7 2.81 2.81 0 0 0 .45 1.62 3.42 3.42 0 0 0 1.28 1.08 22.61 22.61 0 0 0 3.93 1.2 4.59 4.59 0 0 1 1.76.76 1.48 1.48 0 0 1 .57 1.21q0 2-3.16 2a4.94 4.94 0 0 1-2.5-.46 2.21 2.21 0 0 1-1-1.47l-1.86.36a3.6 3.6 0 0 0 1.65 2.38 7.23 7.23 0 0 0 3.67.76 6.17 6.17 0 0 0 3.78-1 3.34 3.34 0 0 0 1.37-2.83 2.86 2.86 0 0 0-.46-1.72z"/>
</svg>
