<?xml version="1.0" standalone="no"?><!DOCTYPE svg PUBLIC "-//W3C//DTD SVG 1.1//EN" "http://www.w3.org/Graphics/SVG/1.1/DTD/svg11.dtd"><svg t="1627912822106" class="icon" viewBox="0 0 1075 1024" version="1.1" xmlns="http://www.w3.org/2000/svg" p-id="9008" xmlns:xlink="http://www.w3.org/1999/xlink" width="209.9609375" height="200"><defs><style type="text/css"></style></defs><path d="M494.7968 593.152L313.1904 490.3936a39.936 39.936 0 0 0-39.0656 0l-181.6064 102.7584a38.1952 38.1952 0 0 0-19.5072 33.1776v205.4144c0 13.7216 7.4752 26.2656 19.5072 33.1776L274.1248 967.68a39.9872 39.9872 0 0 0 39.0656 0l181.6064-102.7584a38.1952 38.1952 0 0 0 19.5072-33.1776v-205.4144a38.2464 38.2464 0 0 0-19.5072-33.1776z m-58.6752 216.4736l-142.4384 80.64V730.624l142.4384-82.176v161.1264z m590.1312-216.4736l-181.5552-102.7584a39.936 39.936 0 0 0-39.1168 0l-181.5552 102.7584a38.1952 38.1952 0 0 0-19.5584 33.1776v205.4144c0 13.7216 7.4752 26.2656 19.5584 33.1776l181.5552 102.7584a39.9872 39.9872 0 0 0 39.1168 0l181.5552-102.7584a38.1952 38.1952 0 0 0 19.5584-33.1776v-205.4144a38.4512 38.4512 0 0 0-19.5584-33.1776z m-58.624 216.4736l-142.4896 80.64V730.624l142.4896-82.176v161.1264zM760.1664 158.976L578.56 56.32a39.936 39.936 0 0 0-39.1168 0L357.888 159.0784a38.1952 38.1952 0 0 0-19.5584 33.1776v205.312c0 13.7216 7.5264 26.2656 19.5584 33.1776l181.5552 102.656a39.9872 39.9872 0 0 0 39.1168 0l181.5552-102.7584a38.1952 38.1952 0 0 0 19.5584-33.2288v-205.312a37.888 37.888 0 0 0-19.456-33.1264z m-58.624 216.4224l-142.592 80.64V296.4992L701.44 214.272v161.1264h0.1024z" fill="#515151" p-id="9009"></path></svg>