<?xml version="1.0" standalone="no"?><!DOCTYPE svg PUBLIC "-//W3C//DTD SVG 1.1//EN" "http://www.w3.org/Graphics/SVG/1.1/DTD/svg11.dtd"><svg t="1545648262092" class="icon" style="" viewBox="0 0 1024 1024" version="1.1" xmlns="http://www.w3.org/2000/svg" p-id="2393" xmlns:xlink="http://www.w3.org/1999/xlink" width="200" height="200"><defs><style type="text/css"></style></defs><path d="M339.229767 996.095048C268.841894 981.164287 149.395807 876.648961 140.863944 755.069908c-23.462624-189.83396 85.318634-317.81191 162.105404-375.401988C377.623152 322.077842 533.329658 119.446087 505.601102 0c0 0 279.418525 223.961413 127.977951 418.061305 0 0 123.712019-104.515326 127.97795-151.440575 0 0 345.540466 550.305187-104.515326 735.873215 0 2.132966-177.036165 51.19118-317.81191-6.398897z" fill="#FF6C2C" p-id="2394"></path><path d="M281.639689 531.108494V639.889752c6.398898-10.664829 17.063727-21.329658 27.728556-25.59559 10.664829-6.398898 21.329658-8.531863 34.127454-8.531863 23.462624 0 42.659317 6.398898 53.324146 21.329658 10.664829 12.797795 17.063727 34.127453 17.063726 59.723044V810.52702h-40.526351v-117.313122c0-17.063727-4.265932-29.861522-10.664829-40.526351-8.531863-10.664829-19.196693-14.930761-34.127453-14.930761-12.797795 0-25.59559 6.398898-34.127454 17.063727-8.531863 10.664829-12.797795 25.59559-12.797795 42.659317V810.52702h-40.526351V531.108494h40.526351zM625.04719 635.623821c17.063727 19.196693 27.728556 44.792283 27.728556 74.653804s-8.531863 55.457112-25.595591 74.653805c-19.196693 19.196693-42.659317 29.861522-72.520838 29.861521s-53.324146-10.664829-72.520839-29.861521c-17.063727-19.196693-25.59559-44.792283-25.59559-74.653805s8.531863-55.457112 27.728556-74.653804c17.063727-19.196693 42.659317-29.861522 72.520839-29.861522s49.058214 10.664829 68.254907 29.861522zM507.734068 661.219411c-8.531863 12.797795-12.797795 29.861522-12.797795 49.058214 0 19.196693 4.265932 36.260419 12.797795 49.058214 10.664829 14.930761 25.59559 21.329658 44.792283 21.329659 19.196693 0 34.127453-8.531863 44.792283-21.329659 8.531863-12.797795 12.797795-29.861522 12.797795-49.058214 0-19.196693-4.265932-36.260419-12.797795-49.058214-10.664829-14.930761-25.59559-21.329658-44.792283-21.329659-19.196693 0-34.127453 6.398898-44.792283 21.329659zM750.892174 612.161196h44.792283v34.127454h-44.792283v115.180155c0 6.398898 2.132966 8.531863 4.265932 12.797795 2.132966 2.132966 6.398898 4.265932 10.664829 4.265932h25.59559V810.52702h-31.994487c-17.063727 0-29.861522-4.265932-36.26042-12.797795-8.531863-8.531863-10.664829-21.329658-10.664829-36.26042v-115.180155h-36.260419v-34.127454h36.260419v-46.925248l40.526351-17.063727v63.988975z" fill="#FFFFFF" p-id="2395"></path></svg>